<svg version="1.2" xmlns="http://www.w3.org/2000/svg" viewBox="0 277 800 245" width="800" height="245">
	<title>google-play-badge-logo-svgrepo-com</title>
	<defs>
		<linearGradient id="g1" x2="1" gradientUnits="userSpaceOnUse" gradientTransform="matrix(-99.455,99.449,100.247,100.253,129.185,333.096)">
			<stop offset="0" stop-color="#00a0ff"/>
			<stop offset=".007" stop-color="#00a1ff"/>
			<stop offset=".26" stop-color="#00beff"/>
			<stop offset=".512" stop-color="#00d2ff"/>
			<stop offset=".76" stop-color="#00dfff"/>
			<stop offset="1" stop-color="#00e3ff"/>
		</linearGradient>
		<linearGradient id="g2" x2="1" gradientUnits="userSpaceOnUse" gradientTransform="matrix(-143.39,0,0,120.088,200.498,400.006)">
			<stop offset="0" stop-color="#ffe000"/>
			<stop offset=".409" stop-color="#ffbd00"/>
			<stop offset=".775" stop-color="#ffa500"/>
			<stop offset="1" stop-color="#ff9c00"/>
		</linearGradient>
		<linearGradient id="g3" x2="1" gradientUnits="userSpaceOnUse" gradientTransform="matrix(-134.862,134.862,45.314,45.314,147.123,413.606)">
			<stop offset="0" stop-color="#ff3a44"/>
			<stop offset="1" stop-color="#c31162"/>
		</linearGradient>
		<linearGradient id="g4" x2="1" gradientUnits="userSpaceOnUse" gradientTransform="matrix(60.225,60.225,20.559,-20.559,43.241,282.524)">
			<stop offset="0" stop-color="#32a071"/>
			<stop offset=".069" stop-color="#2da771"/>
			<stop offset=".476" stop-color="#15cf74"/>
			<stop offset=".801" stop-color="#06e775"/>
			<stop offset="1" stop-color="#00f076"/>
		</linearGradient>
	</defs>
	<style>
		.s0 { fill: #000000 } 
		.s1 { fill: #a6a6a6 } 
		.s2 { fill: #000000;stroke: #ffffff;stroke-miterlimit:10;stroke-width: 1.2 } 
		.s3 { fill: #ffffff } 
		.s4 { fill: url(#g1) } 
		.s5 { fill: url(#g2) } 
		.s6 { fill: url(#g3) } 
		.s7 { fill: url(#g4) } 
		.s8 { opacity: .2;fill: #000000 } 
		.s9 { opacity: .2;fill: #ffffff } 
	</style>
	<g id="Layer 1">
		<path class="s0" d="m770.4 518.5h-740.8c-16.6 0-29.6-13-29.6-29.6v-177.8c0-16.6 13-29.6 29.6-29.6h740.8c16.6 0 29.6 13 29.6 29.6v177.8c0 16.6-13 29.6-29.6 29.6z"/>
		<path class="s1" d="m770.4 281.5h-740.8c-16.6 0-29.6 13.6-29.6 29.6v177.8c0 16.6 13 29.6 29.6 29.6h740.8c16.6 0 29.6-13 29.6-29.6v-177.8c0-16-13-29.6-29.6-29.6zm0 4.7c13.6 0 24.9 11.3 24.9 24.9v177.8c0 13.6-11.3 24.9-24.9 24.9h-740.8c-13.6 0-24.9-11.3-24.9-24.9v-177.8c0-13.6 11.3-24.9 24.9-24.9z"/>
		<path class="s2" d="m280.9 341.9c0 4.8-1.2 8.9-4.2 11.9-3.5 3.5-7.7 5.3-13 5.3-5.3 0-9.5-1.8-13-5.3-3.6-3.6-5.4-7.7-5.4-13.1 0-5.3 1.8-9.4 5.4-13 3.5-3.6 7.7-5.3 13-5.3q3.6 0 7.1 1.7c2.4 1.2 4.2 2.4 5.3 4.2l-2.9 3c-2.4-3-5.3-4.2-9.5-4.2-3.6 0-7.1 1.2-9.5 4.2-2.9 2.3-4.1 5.9-4.1 10 0 4.2 1.2 7.7 4.1 10.1 3 2.4 5.9 4.2 9.5 4.2 4.2 0 7.1-1.2 10.1-4.2 1.8-1.8 2.9-4.1 2.9-7.1h-13v-4.7h17.2zm27.2-14.9h-16v11.3h14.9v4.1h-14.9v11.3h16v4.7h-20.7v-35.5h20.7zm19.6 31.4h-4.7v-31.4h-10.1v-4.2h24.9v4.2h-10.1zm27.3 0v-35.6h4.7v35.6zm24.9 0h-4.7v-31.4h-10.1v-4.2h24.3v4.2h-10.1v31.4zm56.3-4.7c-3.6 3.5-7.7 5.3-13 5.3-5.4 0-9.5-1.8-13.1-5.3-3.5-3.6-5.3-7.8-5.3-13.1 0-5.3 1.8-9.5 5.3-13 3.6-3.6 7.7-5.4 13.1-5.4 5.3 0 9.4 1.8 13 5.4 3.6 3.5 5.3 7.7 5.3 13 0 5.3-1.7 9.5-5.3 13.1zm-22.5-3c2.3 2.4 5.9 4.1 9.5 4.1 3.5 0 7.1-1.1 9.4-4.1 2.4-2.4 4.2-5.9 4.2-10.1 0-4.1-1.2-7.7-4.2-10.1-2.3-2.3-5.9-4.1-9.4-4.1-3.6 0-7.2 1.2-9.5 4.1-2.4 2.4-4.2 6-4.2 10.1 0 4.2 1.2 7.7 4.2 10.1zm34.3 7.7v-35.6h5.4l17.2 27.9v-27.9h4.7v35.6h-4.7l-18.4-29v29z"/>
		<path class="s3" d="m403.6 410.7c-14.3 0-25.5 10.6-25.5 25.4 0 14.3 11.2 25.5 25.5 25.5 14.2 0 25.4-10.6 25.4-25.5 0-15.4-11.2-25.4-25.4-25.4zm0 40.3c-7.7 0-14.3-6.6-14.3-15.4 0-8.9 6.6-15.5 14.3-15.5 7.7 0 14.2 6 14.2 15.5 0 8.8-6.5 15.4-14.2 15.4zm-55.2-40.3c-14.2 0-25.4 10.6-25.4 25.4 0 14.3 11.2 25.5 25.4 25.5 14.3 0 25.5-10.6 25.5-25.5 0-15.4-11.2-25.4-25.5-25.4zm0 40.3c-7.7 0-14.2-6.6-14.2-15.4 0-8.9 6.5-15.5 14.2-15.5 7.7 0 14.3 6 14.3 15.5 0 8.8-6.6 15.4-14.3 15.4zm-65.7-32.6v10.6h25.4c-0.5 6-2.9 10.7-5.9 13.7-3.5 3.5-9.5 7.7-19.5 7.7-16 0-27.9-12.5-27.9-28.5 0-16 12.5-28.4 27.9-28.4 8.3 0 14.8 3.5 19.5 7.7l7.7-7.7c-6.5-5.9-14.8-10.7-26.6-10.7-21.4 0-39.7 17.8-39.7 39.1 0 21.4 18.3 39.1 39.7 39.1 11.8 0 20.1-3.5 27.2-11.2 7.1-7.1 9.5-17.2 9.5-24.9 0-2.4 0-4.8-0.6-6.5zm269 8.3c-2.3-6-8.3-16-21.3-16-13 0-23.7 10-23.7 25.4 0 14.3 10.7 25.5 24.9 25.5 11.3 0 18.4-7.1 20.7-11.2l-8.3-6c-2.9 4.2-6.5 7.2-12.4 7.2-5.9 0-9.5-2.4-12.4-7.7l33.7-14.3zm-34.3 8.3c0-9.5 7.7-14.8 13-14.8 4.1 0 8.3 2.4 9.5 5.3zm-27.9 24.3h11.3v-74h-11.3zm-17.8-43.3c-2.9-3-7.7-5.9-13.6-5.9-12.4 0-24.3 11.2-24.3 25.5 0 14.2 11.3 24.9 24.3 24.9 5.9 0 10.7-3 13.1-6h0.5v3.6c0 9.5-5.3 14.8-13.6 14.8-6.5 0-11.2-4.7-12.4-8.9l-9.5 4.2c3 6.5 10.1 14.8 22.5 14.8 13 0 23.7-7.7 23.7-26.1v-45h-10.7zm-13 34.9c-7.7 0-14.2-6.5-14.2-15.4 0-8.9 6.5-15.4 14.2-15.4 7.7 0 13.6 6.5 13.6 15.4 0 8.9-5.9 15.4-13.6 15.4zm144.6-65.8h-26.7v74.1h11.3v-27.8h15.4c12.4 0 24.3-8.9 24.3-23.1 0-14.3-11.9-23.2-24.3-23.2zm0.6 35.6h-16v-25.5h16c8.3 0 13 7.1 13 12.5-0.6 6.5-5.3 13-13 13zm68.1-10.7c-8.3 0-16.5 3.6-19.5 11.3l10.1 4.1c2.3-4.1 5.9-5.3 10-5.3 6 0 11.3 3.6 11.9 9.5v0.6c-1.8-1.2-6.5-3-11.3-3-10.6 0-21.3 5.9-21.3 16.6 0 10.1 8.9 16.6 18.4 16.6 7.7 0 11.2-3.6 14.2-7.1h0.6v5.9h10.6v-28.4c-1.1-13.1-11.2-20.8-23.7-20.8zm-1.1 40.9c-3.6 0-8.9-1.8-8.9-6.5 0-5.9 6.5-7.7 11.8-7.7 4.8 0 7.1 1.2 10.1 2.4-1.2 7.1-7.1 11.8-13 11.8zm62.2-39.1l-12.5 32h-0.6l-13-32h-11.8l19.5 45-11.2 24.9h11.2l30.2-69.9zm-99.5 47.4h11.2v-74.1h-11.2z"/>
		<g>
			<path class="s4" d="m61.6 325.9c-1.7 1.8-2.3 4.8-2.3 8.3v131c0 3.5 1.1 6.5 2.9 8.3l0.6 0.6 73.5-73.5v-1.2z"/>
			<path class="s5" d="m160 425.5l-24.3-24.3v-1.8l24.3-24.3 0.6 0.6 29 16.6c8.3 4.7 8.3 12.4 0 17.2z"/>
			<path class="s6" d="m160.6 424.9l-24.9-24.9-74.1 74.1c3 2.9 7.1 2.9 12.5 0.6z"/>
			<path class="s7" d="m160.6 375.1l-86.5-49.2c-5.4-2.9-9.5-2.3-12.5 0.6l74.1 73.5z"/>
			<path class="s8" d="m160 424.3l-85.9 48.6c-4.8 3-8.9 2.4-11.9 0l-0.6 0.6 0.6 0.6c3 2.3 7.1 2.9 11.9 0z"/>
			<path class="s8" d="m61.6 472.9c-1.7-1.8-2.3-4.8-2.3-8.3v0.6c0 3.5 1.1 6.5 2.9 8.3v-0.6zm128-65.2l-29.6 16.6 0.6 0.6 29-16.6c4.2-2.4 5.9-5.3 5.9-8.3 0 3-2.3 5.3-5.9 7.7z"/>
			<path class="s9" d="m74.1 326.5l115.5 65.8c3.6 2.4 6 4.7 6 7.7 0-3-1.8-5.9-6-8.3l-115.5-65.8c-8.3-4.7-14.8-1.2-14.8 8.3v0.6c0-8.9 6.5-13 14.8-8.3z"/>
		</g>
	</g>
</svg>