<svg version="1.2" xmlns="http://www.w3.org/2000/svg" viewBox="0 0 764.21 229.6" width="765" height="230">
	<title>Digital Government Authority-01 (1)</title>
	<style>
		.s0 { fill: #6b7280 } 
	</style>
	<g>
	</g>
	<path class="s0" d="m681.1 114.9l-36.2-21.1v-41.9c0-11.9-6.4-22.9-16.7-28.9l-28.8-16.6c-10.3-5.9-23-5.9-33.3 0l-28.9 16.7c-10.3 6-16.6 17-16.7 28.8v42l-36.4 21c-10.3 6-16.6 17-16.7 28.8v33.3c0 12 6.4 22.9 16.7 28.8l28.8 16.7c10.3 5.9 23 5.9 33.3 0l36.3-21 36.4 21c10.3 5.9 22.9 5.9 33.3 0l28.9-16.6c10.4-5.9 16.6-16.9 16.7-28.8v-33.3c0-11.9-6.3-22.9-16.7-28.9zm-142.4-62.9c0-5.4 2.9-10.4 7.6-13.1l28.9-16.7c4.6-2.7 10.5-2.7 15.1 0l28.9 16.7c4.7 2.7 7.6 7.7 7.6 13.1v31.5l-25-14.3c-11.8-6.9-26.4-6.9-38.2 0l-24.9 14.3zm-1.5 154.8c-4.7 2.7-10.5 2.7-15.2 0l-28.8-16.7c-4.6-2.7-7.6-7.7-7.6-13.1v-33.3c0-5.4 2.9-10.4 7.6-13.1l27.3-15.8v28.9c0 13.7 7.3 26.3 19 33.2l24.8 14.3zm45.5-26.1l-33.9-19.6c-6.2-3.6-10.1-10.2-10.1-17.4v-39.3l34-19.6c6.1-3.5 13.9-3.5 20.1 0l33.9 19.6v39.2c0 7.2-3.9 13.8-10.1 17.4zm97.1-3.6c0 5.3-2.9 10.4-7.6 13.1l-28.9 16.6c-4.7 2.7-10.5 2.7-15.2 0l-27.2-15.7 24.9-14.1c11.8-6.9 19.1-19.5 19.1-33.1v-29l27.4 15.8c4.6 2.7 7.6 7.7 7.6 13.1v33.3z"/>
	<path class="s0" d="m171.8 127c-2.4 0-4.4-2-4.4-4.4 0-2.5 2-4.4 4.4-4.4 2.4 0 4.4 1.9 4.4 4.4 0 2.4-2 4.4-4.4 4.4z"/>
	<path class="s0" d="m258.1 71.2v40.4h-7.6v-40.4z"/>
	<path class="s0" d="m112.7 111.6v-22.9h-3.7c-4.6 0-7.2 3.8-7.2 8.2v14.6h-20c-4 0.2-8-1.4-10.8-4.2-2.7-2.9-4.1-6.6-4-10.4-0.1-3.9 1.3-7.5 4-10.3l5.5 4.6c-1.2 1.7-1.9 3.7-1.9 5.7-0.1 2.1 0.7 4.1 1.9 5.7 1.3 1.6 3.2 2.5 5.3 2.5h12.4v-8.3c-0.3-7.8 5.9-14.4 13.7-14.6h12.4v22.9h26.7c-0.3-1.1-0.6-2.3-0.6-3.5v-4.8c0.1-2.1-0.6-4-1.9-5.7-2.5-2.9-6.9-3.2-9.8-0.7-0.3 0.3-0.6 0.5-0.8 0.7l-5.5-4.5c6.1-5.9 15.7-5.9 21.8 0 2.6 2.8 4 6.4 3.9 10.3v5.6c0 1.4 1.2 2.6 2.6 2.6h21.2c-0.3-1.1-0.6-2.3-0.6-3.5v-4.8c0-2.1-0.6-4-1.9-5.7-2.5-2.9-6.9-3.2-9.9-0.7-0.2 0.3-0.5 0.5-0.7 0.7l-5.5-4.5c6.1-5.9 15.7-5.9 21.8 0 2.6 2.8 4 6.4 3.9 10.3v5.6c0 1.4 1.2 2.6 2.6 2.6h1.9v6.5z"/>
	<path class="s0" d="m81.6 127c-2.4 0-4.4-2-4.4-4.4 0-2.5 2-4.4 4.4-4.4 2.5 0 4.4 1.9 4.4 4.4 0 2.4-1.9 4.4-4.4 4.4z"/>
	<path class="s0" d="m288.6 80.9c-2.5 0-4.4-2-4.4-4.4 0-2.5 1.9-4.5 4.4-4.5 2.5 0 4.4 2 4.4 4.5 0 2.4-1.9 4.4-4.4 4.4z"/>
	<path class="s0" d="m94.3 127c-2.4 0-4.4-2-4.4-4.4 0-2.5 2-4.4 4.4-4.4 2.4 0 4.4 1.9 4.4 4.4 0 2.4-2 4.4-4.4 4.4z"/>
	<path class="s0" d="m305.3 82.2c-7.8-0.4-14.4 5.7-14.8 13.5v1.1c0 2.9 0.7 5.7 2.3 8.2h-10.1c-2 0.1-4-0.8-5.3-2.5-1.2-1.6-1.9-3.6-1.9-5.7 0-2.1 0.7-4 1.9-5.7l-5.4-4.5c-5.3 5.9-5.3 14.8 0 20.7 2.8 2.9 6.8 4.5 10.8 4.4h22.6c8.2 0 14.7-6.6 14.7-14.7 0-8.2-6.7-14.8-14.8-14.8zm0 22.9c-4.5 0-7.1-3.8-7.1-8.2 0-4.4 2.4-8.2 7.1-8.2 4.8 0 7.4 3.3 7.4 7.3v0.8c0 4.4-2.6 8.2-7.2 8.2"/>
	<path class="s0" d="m408.6 82.2c-7.8-0.4-14.4 5.7-14.8 13.5v1.1c0 2.9 0.7 5.7 2.3 8.2h-9.8c-0.6 0-1.2-0.3-1.5-0.9 1-1.9 1.6-4 1.7-6.1 0.2-7.9-6-14.5-13.9-14.7h-1c-7.3 0.1-14 3.6-18.3 9.5v-7.1h-7.1v19.4h-8.4c-1.2 0-1.6-1-1.6-2.3v-17.9h-7.6v24.6c0 4.4-2.6 8.2-7.2 8.2v6.6c7.8 0.3 14.4-5.8 14.8-13.6v-0.6c0.7 1 1.9 1.5 3.1 1.5h34.6c3-0.1 5.8-1.2 8-3.4 1.1 2.2 3.4 3.4 5.8 3.4h20.9c8.2 0 14.7-6.5 14.7-14.7 0-8.2-6.6-14.7-14.7-14.7zm-37 22.9h-17.3c3.4-8.3 9.8-15.1 17.4-15.1 7.5 0 7.1 3.8 7.1 8.1 0.3 3.6-2.3 6.8-5.9 7-0.4 0-0.9 0-1.3 0zm36.9 0c-4.5 0-7.1-3.8-7.1-8.2 0-4.4 2.6-8.2 7.1-8.2 4.6 0 7.4 3.3 7.4 7.3v0.8c0 4.5-2.7 8.3-7.4 8.3z"/>
	<path class="s0" d="m206.5 71.2v40.4h-7.6v-40.4z"/>
	<path class="s0" d="m236.2 100.6c0 3.1-1.6 4.5-3.8 4.5h-6.5c-1.2 0-1.6-1-1.6-2.3v-17.9h-7.6v24.6c0 4.4-2.6 8.2-7.4 8.2v6.6c7.8 0.3 14.5-5.7 14.8-13.6v-0.7c0.7 1 1.9 1.5 3.1 1.5h6.2c6.7 0 9.9-4.2 9.9-10.7v-29.8h-7.3z"/>
	<path class="s0" d="m276 180.8v-44.9h7.6v17.1c1.2-1 2.5-1.7 4-2.3 1.3-0.4 2.7-0.7 4.1-0.6 4.5 0 8.7 1.9 11.7 5.2 2.6 2.9 4 6.7 4 10.7 0.1 4.5-1.8 8.9-5.2 11.8-2.9 2.7-6.6 4.2-10.5 4.2-3.9 0-2.8-0.2-4.1-0.7-1.5-0.5-2.7-1.3-4-2.2v1.9zm15.5-23.9c-2.3 0-4.5 1-6 2.9-2.7 3.9-2.6 9.2 0.6 12.9 3.2 3 8.2 2.9 11.3-0.4 0.1 0 0.2-0.1 0.2-0.2 1.4-1.7 2.1-4 2-6.1 0.2-2.5-0.7-5-2.4-6.8-1.4-1.5-3.4-2.3-5.5-2.2"/>
	<path class="s0" d="m342.7 180.8h-7.7v-1.9c-1.1 0.9-2.5 1.7-3.9 2.3-1.4 0.4-2.7 0.7-4.1 0.6-4.5 0-8.8-1.8-11.7-5.2-5.7-6.6-5.3-16.6 1.1-22.5 2.8-2.7 6.6-4.1 10.6-4 1.4 0 2.7 0.2 4.1 0.6 1.4 0.6 2.7 1.3 3.9 2.3v-1.9h7.7zm-15.5-23.9c-2.3 0-4.6 1-6.1 2.9-1.3 1.8-2 3.9-1.9 6.1-0.1 2.5 0.8 5 2.6 6.8 1.4 1.5 3.5 2.3 5.4 2.2 2.4 0 4.6-1 6-2.9 1.4-1.7 2.1-4 2-6.1 0.2-2.5-0.7-4.9-2.4-6.7-1.4-1.6-3.4-2.4-5.6-2.3z"/>
	<path class="s0" d="m358.2 152.4c1-0.8 2.1-1.5 3.3-1.9 1.2-0.5 2.4-0.7 3.7-0.7 1.2 0 3.5 0.4 5.1 1.1 1.6 0.6 3.1 1.7 4.2 3 2.4 3 3.6 6.9 3.3 10.8v16.1h-7.8v-15.6c0.3-2.4-0.2-4.7-1.4-6.8-1-1-2.5-1.7-3.9-1.6-1.9 0-3.7 0.7-4.9 2.1-1.2 2.1-1.7 4.5-1.4 6.8v15h-7.8v-29.8h7.7v1.5z"/>
	<path class="s0" d="m401.2 163.5l13.7 17.3h-9.4l-9.5-12.2-2.9 2.8v9.4h-7.6v-44.9h7.6v25.7l10.9-10.6h10.1l-12.9 12.5z"/>
	<path class="s0" d="m107 180.8h-7.7v-1.9c-1.2 0.9-2.5 1.7-3.9 2.3-1.4 0.4-2.7 0.7-4.2 0.6-4.5 0-8.7-1.9-11.6-5.2-5.8-6.6-5.3-16.5 1-22.5 2.9-2.7 6.7-4.1 10.6-4 1.5 0 2.8 0.2 4.2 0.6 1.4 0.6 2.7 1.3 3.9 2.3v-1.9h7.7zm-15.6-23.9c-2.4 0-4.7 1-6.1 2.9-1.3 1.7-2.1 3.9-2 6.1-0.1 2.5 0.8 4.9 2.5 6.8 1.4 1.5 3.5 2.3 5.4 2.2 2.5 0 4.8-1 6.2-2.9 1.4-1.8 2.1-4 2-6.1 0.2-2.5-0.7-4.9-2.4-6.7-1.5-1.6-3.4-2.4-5.6-2.3z"/>
	<path class="s0" d="m122.5 135.9v44.9h-7.7v-44.9z"/>
	<path class="s0" d="m181.2 180.8h-7.7v-1.9c-1.1 0.9-2.5 1.7-3.9 2.3-1.4 0.4-2.7 0.7-4.2 0.6-4.4 0-8.6-1.9-11.4-5.2-5.8-6.6-5.3-16.5 1-22.5 2.9-2.7 6.7-4.1 10.5-4 1.5 0 2.8 0.2 4.2 0.6 1.4 0.6 2.7 1.3 3.9 2.3v-1.9h7.6zm-15.5-23.9c-2.4 0-4.7 1-6.1 2.9-1.3 1.8-2.1 3.9-2 6.1-0.1 2.5 0.8 5 2.6 6.8 1.5 1.5 3.5 2.3 5.5 2.2 2.3 0 4.6-1 6-2.9 1.4-1.7 2.1-4 2-6.1 0.2-2.5-0.7-4.9-2.4-6.7-1.5-1.6-3.5-2.4-5.6-2.3z"/>
	<path class="s0" d="m193.5 136.1c1.3 0 2.5 0.5 3.4 1.4 0.9 0.9 1.5 2.1 1.5 3.4 0 1.2-0.5 2.5-1.5 3.4-0.9 0.9-2.1 1.3-3.4 1.3-1.2 0-2.5-0.4-3.4-1.3-0.9-0.9-1.4-2.2-1.4-3.4 0-1.3 0.5-2.5 1.4-3.4 0.9-0.9 2.1-1.4 3.4-1.4z"/>
	<path class="s0" d="m212.9 152.4c1-0.8 2.1-1.5 3.3-1.9 1.2-0.4 2.5-0.6 3.7-0.5 1.7 0 3.5 0.4 5.1 1.1 1.6 0.6 3.1 1.7 4.2 3 2.5 3 3.6 6.9 3.3 10.8v16.1h-7.7v-15.6c0.3-2.3-0.2-4.6-1.4-6.7-1-1.1-2.5-1.7-3.9-1.6-1.9 0-3.7 0.6-4.9 2.1-1.1 2-1.7 4.5-1.4 6.8v15h-8v-45h7.7z"/>
	<path class="s0" d="m244 136.1c1.2 0 2.5 0.5 3.4 1.4 0.9 0.9 1.4 2.1 1.4 3.4 0 1.2-0.5 2.5-1.4 3.4-0.9 0.9-2.2 1.3-3.4 1.3-1.3 0-2.6-0.4-3.4-1.3-0.9-0.9-1.5-2.2-1.5-3.4 0-1.3 0.5-2.5 1.5-3.4 0.9-0.9 2.1-1.4 3.4-1.4zm3.8 44.7h-7.6v-29.8h7.6z"/>
	<path class="s0" d="m129.8 162.8v18.1h7.6v-18.4c0-4.1 2.2-5.3 5.5-5.3h4.3v-6.7h-4.6c-8.6 0-12.8 4.6-12.8 12.3z"/>
	<path class="s0" d="m197.3 151h-7.6v30.8c0 4.5-2.6 8.3-7.4 8.3v6.7c8.1 0.1 14.8-6.3 15-14.4z"/>
	<g>
	</g>
</svg>