<svg version="1.2" xmlns="http://www.w3.org/2000/svg" viewBox="0 0 764.21 229.6" width="765" height="230">
	<title>digital2</title>
	<style>
		.s0 { fill: #6b7280 } 
	</style>
	<g>
	</g>
	<g>
	</g>
	<path class="s0" d="m302.46 12.26v154.35c0.46 14.68 7.66 21.97 22.43 22.15 14.49 0.19 28.8 0 43.11 0h18.92c4.43 0 4.89-0.83 2.59-4.7-6.46-11.36-10.71-23.64-10.9-36.93-0.18-27.05 8.31-50.13 32.41-64.99 12.73-7.84 26.86-8.77 41.35-7.84 21.97 1.47 37.48 12.83 48.47 30.92 5.17 8.49 7.29 18.09 8.77 27.69 2.76 17.08-0.65 33.24-8.5 48.47-1.01 1.94-2.12 3.88-3.6 6.46 1.66 0.28 3.42 0.65 5.08 0.65 20.22 0 40.34 0.18 60.56 0 3.87-0.19 7.94-0.83 11.72-2.31 7.2-2.49 9.6-8.59 10.89-15.14 0.65-3.88 1.02-7.94 0.83-11.91 0-17.45 0.19-34.71 0-52.06 0-4.43 1.3-6.83 5.54-8.77 10.43-5.08 20.5-10.71 30.74-16.16 1.11-0.64 2.5-1.11 4.25-1.94 0.18 1.76 0.18 3.14 0.18 4.25 0 27.97 0.28 56.03-0.18 84-0.28 17.27-5.82 32.78-19.2 44.59-9.23 8.13-20.03 13.39-32.4 13.66-30.74 0.65-61.39 0.83-92.13 0.83-30.74 0-25.11-1.75-37.57-1.93-7.3-0.19-14.5 1.1-21.79 1.66-1.75 0.18-3.6 0.27-5.35 0.27-31.76 0-63.51 0.19-95.27 0-12.83 0-25.2-2.3-36.28-9.78-14.31-9.6-21.97-22.99-24.09-39.88-0.65-5.72-1.02-11.54-0.83-17.26v-122.87c0-1.94 0.83-4.71 2.12-5.54 12.19-6.55 24.74-12.83 38.13-20.03zm115.29 127.94c1.3 20.5 8.31 34.81 24.47 43.67 1.47 0.64 3.04 0.64 4.43 0 4.89-3.6 10.43-7.02 14.12-11.54 10.9-13.48 14.5-28.62 7.66-45.23-3.04-8.68-10.89-14.5-20.03-15.33-11.26-1.11-21.32 1.48-26.4 12.83-2.4 5.73-3.23 12.1-4.25 15.6z"/>
	<path class="s0" d="m99 227.81c2.95-5.81 5.72-11.26 8.31-16.43q4.71-8.72 9.14-17.72c1.1-3.05 4.24-4.9 7.47-4.53 15.51 0.19 31.11 0.19 46.71 0 12.74 0 19.02-6.18 19.57-18.74 1.02-22.8-8.12-40.71-26.21-54.18-2.77-2.13-5.73-3.88-8.96-6.37l13.39-22.99c1.66-2.95 3.41-5.72 5.08-8.68 1.1-1.94 2.4-1.94 4.06-0.83 11.35 7.48 22.15 15.79 30.92 26.4 12.37 14.77 19.85 32.87 21.7 52.07 1.29 12 0.83 24.09-1.67 36-3.41 15.6-12 27.51-27.69 32.77-6.37 1.94-13.02 3.05-19.66 3.05-26.5 0.27-53.27 0.18-79.76 0.18-0.46 0.19-1.02 0.19-2.31 0z"/>
	<path class="s0" d="m608.01 1c13.2 0 20.86 7.94 20.86 21.32 0 13.39-7.2 21.33-20.86 21.33-13.66 0-21.79-8.31-21.32-21.79 0.46-13.2 7.94-20.86 21.32-20.86z"/>
	<path class="s0" d="m154.02 21.86c0-12.83 8.12-20.86 21.32-20.86 13.2 0 20.68 7.85 20.68 21.32 0 13.48-7.2 21.05-20.68 21.14-13.48 0.19-21.51-7.94-21.32-21.69z"/>
	<path class="s0" d="m465.76 27.22c-0.28 2.77-0.65 5.54-1.3 8.3-1.75 5.91-5.53 10.25-11.9 11.36-8.59 1.66-17.45 2.12-23.91-5.17-6.46-7.29-6.65-16.43-3.23-24.92 2.95-7.48 9.6-11.36 17.72-10.9 4.71 0 9.23 1.11 13.48 3.14 7.2 3.6 9.23 10.43 9.14 18.28z"/>
</svg>