<svg version="1.2" xmlns="http://www.w3.org/2000/svg" viewBox="0 0 764.21 229.6" width="765" height="230">
	<title>digital2</title>
	<style>
		.s0 { fill: #6b7280 } 
	</style>
	<g>
	</g>
	<g>
	</g>
	<path class="s0" d="m338.54 70.65c0.47 0.58 0.73 1.25 0.73 1.93v46.82c0 0.81-0.7 1.51-1.51 1.51h-2.94c-0.81 0-1.49-0.7-1.49-1.51v-45.7l-12.5-14.53c-0.47-0.58-0.73-1.26-0.73-1.93v-10.71c0-0.81 0.7-1.49 1.51-1.49h2.94c0.81 0 1.51 0.68 1.51 1.49v9.59l12.48 14.51zm-8.2 9.61c0 2.82-1.59 5.29-4.17 6.54l-0.16 0.08v21.78c0 0.81-0.68 1.48-1.51 1.48h-2.94c-0.81 0-1.49-0.67-1.49-1.48v-21.78l-0.18-0.08c-2.55-1.25-4.14-3.72-4.14-6.54 0-4.01 3.25-7.27 7.26-7.27 4.02 0 7.27 3.26 7.27 7.27zm-4.35 0c0-1.59-1.3-2.92-2.92-2.92-1.61 0-2.91 1.28-2.91 2.92 0 1.62 1.3 2.89 2.91 2.89 1.62 0 2.92-1.27 2.92-2.89zm11.8-77.09h-2.97c-0.8 0-1.48 0.68-1.48 1.49v22.87l-7.27 3.52v-22.2c0-0.81-0.68-1.51-1.51-1.51h-2.94c-0.81 0-1.49 0.7-1.49 1.51v26.86c0 0.81 0.26 1.56 0.76 2.14 0.57 0.6 1.38 0.94 2.18 0.94 0.81 0 0.89-0.11 1.28-0.32l13.21-6.41c1.04-0.46 1.67-1.53 1.67-2.68v-24.77c0-0.81-0.68-1.49-1.49-1.49h0.05zm36.63 36.47h2.95c0.86 0 1.51-0.67 1.51-1.51v-35.61c0-0.86-0.68-1.49-1.51-1.49h-2.95c-0.8 0-1.48 0.68-1.48 1.49v35.61c0 0.84 0.68 1.51 1.48 1.51zm-26.47-9.06l13.21 8.05c0.97 0.54 2.19 0.54 3.13 0 0.86-0.58 1.41-1.57 1.41-2.71v-34.42c0-0.8-0.68-1.51-1.49-1.51h-2.94c-0.81 0-1.51 0.71-1.51 1.51v29.29l-7.27-4.41v-23.81c0-0.86-0.68-1.51-1.49-1.51h-2.94c-0.83 0-1.51 0.7-1.51 1.51v25.48c0 1.04 0.55 2.01 1.46 2.58zm-36.61-16.13h-2.94c-0.83 0-1.51 0.68-1.51 1.49v68.54c0 0.84 0.68 1.51 1.51 1.51h2.94c0.81 0 1.49-0.67 1.49-1.51v-68.54c0-0.81-0.68-1.49-1.49-1.49zm105.67 0h-2.97c-0.83 0-1.48 0.68-1.48 1.49v68.54c0 0.84 0.67 1.51 1.48 1.51h2.97c0.81 0 1.49-0.67 1.49-1.51v-68.54c0-0.81-0.68-1.49-1.49-1.49zm-12.74 47.29c0.68 0.55 1.07 1.41 1.07 2.26v7.46c0 0.8-0.7 1.48-1.51 1.48h-2.94c-0.86 0-1.52-0.68-1.52-1.48v-6.05l-12.14-10.13c-0.67-0.55-1.06-1.41-1.06-2.27v-35.95l-0.16-0.08c-2.53-1.2-4.12-3.78-4.12-6.54 0-4.04 3.26-7.27 7.27-7.27 4.01 0 7.27 3.23 7.27 7.27 0 4.01-1.61 5.34-4.09 6.54l-0.18 0.08v34.54l12.14 10.14zm-1.93 22.98c-0.49 0-1.02 0.1-1.48 0.41l-13.21 7.74c-0.91 0.55-1.51 1.49-1.51 2.58v23.97c0 0.81 0.67 1.51 1.51 1.51h2.94c0.86 0 1.49-0.7 1.49-1.51v-22.28l7.26-4.22v15.74c0 0.81 0.71 1.48 1.52 1.48h2.94c0.81 0 1.51-0.67 1.51-1.48v-20.84c0-0.89-0.36-1.7-0.96-2.27-0.55-0.55-1.28-0.81-2.04-0.81zm-26.44 14.41h-0.15l-13.21 0.65c-1.59 0.08-2.84 1.41-2.84 3v29.46c0 0.81 0.7 1.49 1.51 1.49h2.94c0.86 0 1.49-0.68 1.49-1.49v-26.65l7.27-0.34v21.76c0 0.83 0.7 1.51 1.51 1.51h2.94c0.86 0 1.51-0.68 1.51-1.51v-24.88c0-0.29 0-0.55-0.1-0.76-0.34-1.33-1.54-2.24-2.87-2.24zm-19.15 22.12c0 4.01-3.25 7.27-7.27 7.27-4.01 0-7.26-3.26-7.26-7.27 0-4.01 1.58-5.32 4.11-6.54l0.16-0.11v-18.21c0-0.8 0.68-1.48 1.51-1.48h2.94c0.81 0 1.49 0.68 1.49 1.48v18.21l0.18 0.11c2.55 1.22 4.09 3.72 4.09 6.54zm-4.35 0c0-1.59-1.28-2.92-2.92-2.92-1.61 0-2.89 1.28-2.89 2.92 0 1.61 1.28 2.89 2.89 2.89 1.64 0 2.92-1.28 2.92-2.89zm51.4-113.88h-2.94c-0.86 0-1.51 0.68-1.51 1.49v39.86c0 0.81 0.67 1.51 1.51 1.51h2.94c0.81 0 1.49-0.7 1.49-1.51v-39.86c0-0.81-0.68-1.49-1.49-1.49zm-11.77 3.08c0-1.59-1.28-2.89-2.9-2.89-1.64 0-2.91 1.27-2.91 2.89 0 1.64 1.27 2.91 2.91 2.91 1.62 0 2.9-1.27 2.9-2.91zm-10.3 64.82c-7.06-2.01-10.65 0.52-15.18 3.72q-0.81 0.58-1.7 1.2c-0.99-7.48-0.83-16.47-0.6-19.46 1.83 1.17 4.07 3.25 5.55 8.78l0.21 0.75c0 0.13 0.18 0.24 0.26 0.24 0.13 0 0.21-0.11 0.26-0.24l0.13-0.75c0.99-5.47-1.87-9.38-3.05-10.68 0.53 0.07 1.33 0.28 2.27 0.7 1.54 0.73 3.86 2.27 6.12 5.58l0.47 0.72c0.08 0.13 0.21 0.13 0.34 0.08 0.13-0.05 0.18-0.18 0.18-0.28l-0.18-0.86c-1.46-7.14-6.67-9.59-8.49-10.24 0.96-0.34 3.36-0.73 8.02 0.83l0.6 0.21c0.13 0 0.21 0 0.31-0.08 0-0.1 0-0.23 0-0.31l-0.44-0.47c-3.49-4.12-8.6-3.75-10.39-3.46 0.44-0.66 1.38-1.62 2.86-2.66l0.6-0.42c0.11-0.08 0.13-0.21 0.11-0.31 0-0.13-0.19-0.16-0.32-0.16l-0.73 0.13q-2.04 0.33-3.33 0.97-1.28 0.66-1.93 1.25c-0.08-0.76-0.26-1.75-0.6-2.56l-0.15-0.36c-0.06-0.08-0.14-0.16-0.27-0.16-0.13 0-0.2 0.08-0.26 0.16l-0.18 0.39c-0.34 0.81-0.49 1.8-0.6 2.58-0.81-0.73-2.55-1.85-5.23-2.24l-0.73-0.13q-0.2-0.01-0.32 0.18c-0.02 0.13 0 0.26 0.08 0.29l0.6 0.44c1.51 1.07 2.4 2.06 2.87 2.66-1.8-0.32-6.88-0.65-10.37 3.46l-0.44 0.47c-0.08 0.08-0.08 0.21 0 0.29 0.07 0.08 0.18 0.13 0.31 0.08l0.6-0.21c4.61-1.54 7.01-1.15 8.02-0.81-1.87 0.65-7.06 3.05-8.49 10.19l-0.18 0.86c0 0.1 0 0.23 0.18 0.28 0.13 0.05 0.23 0 0.28-0.08l0.53-0.72c2.26-3.34 4.55-4.88 6.09-5.58 0.99-0.42 1.77-0.63 2.27-0.7-1.17 1.3-4.01 5.21-3.02 10.68l0.13 0.75c0 0.13 0.13 0.24 0.26 0.24 0.13 0 0.21-0.11 0.26-0.24l0.21-0.75c1.48-5.53 3.67-7.61 5.55-8.78 0.18 2.99 0.33 11.93-0.6 19.46-0.6-0.39-1.15-0.81-1.72-1.2-4.51-3.2-8.11-5.73-15.17-3.72-0.13 0-0.2 0.13-0.18 0.26 0 0.13 0.13 0.2 0.26 0.26 6.98 0.6 10.32 3.2 13.78 5.94 0.76 0.6 1.57 1.25 2.4 1.85-2.4 1.59-4.98 3.07-7.63 3.54-0.13 0-0.21 0.13-0.24 0.26 0 0.08 0.08 0.26 0.16 0.29 3.72 2.03 6.98 0.23 10.47-2.17 2.45 1.67 4.74 3.03 7.19 3.03 2.45 0 2.14-0.26 3.29-0.86 0.1-0.03 0.18-0.21 0.18-0.29 0-0.13-0.13-0.26-0.26-0.26-2.66-0.47-5.21-1.95-7.61-3.54 0.86-0.6 1.62-1.25 2.4-1.85 3.49-2.74 6.8-5.34 13.75-5.94 0.13 0 0.24-0.13 0.26-0.26 0-0.13-0.08-0.26-0.21-0.26z"/>
	<path class="s0" d="m261.35 151.65v3.08h-3.49v-3.08z"/>
	<path class="s0" d="m256.42 151.65v3.08h-3.49v-3.08z"/>
	<path class="s0" d="m299.23 168.87q1.18 0 2.14-0.47c0.65-0.34 1.17-0.75 1.58-1.35q0.87 1.01 1.78 1.4c0.57 0.27 1.43 0.42 2.47 0.42h1.49c1.46 0 2.65-0.49 3.51-1.56q0.75 0.75 1.7 1.14 0.98 0.4 1.77 0.4h22.22c0.99-2.58 1.46-4.59 1.46-6.13 0-1.53-0.26-2.26-0.78-3.2-0.5-0.94-1.28-1.67-2.27-2.24q-1.45-0.82-3.57-0.81-3.87 0.01-8.05 2.79v-9.12h-3.41v15.79h-5.6c-1.07 0-1.9-0.29-2.37-0.89q0.14-0.67 0.13-1.38v-6.88h-3.42v6.36q0.02 1.28-0.67 2.06-0.71 0.78-1.67 0.78h-0.47c-0.94 0-1.64-0.1-2.11-0.23q-0.69-0.15-1.22-0.81 0.13-0.63 0.13-1.28v-7.14h-3.44v6.62q0.01 1.28-0.68 2.06-0.7 0.78-1.67 0.78h-34.41q-0.91 0-1.41-0.52-0.47-0.51-0.47-1.8v-6.62c-2.11-0.33-3.72-0.46-4.84-0.46-1.12 0-2.48 0.23-3.47 0.8-0.99 0.55-1.8 1.28-2.32 2.22q-0.81 1.41-0.81 3.18c0 1.14 0.27 2.29 0.79 3.2 0.52 0.94 1.22 1.62 2.13 2.14 0.89 0.49 1.96 0.75 3.02 0.75 1.65 0 3.65-0.36 4.25-0.47 0.6 0.32 1.28 0.47 2.14 0.47h36.47zm25.48-6.62c1.25-0.86 2.45-1.51 3.65-2 1.2-0.47 2.47-0.73 3.75-0.73 1.28 0 2.01 0.29 2.71 0.88q1.01 0.91 1.01 2.4c0 0.99-0.18 2.01-0.46 3.18h-10.66zm-69.95 2.87q-0.76-0.84-0.76-2.32c0-2.22 0.97-3.34 2.97-3.34 2.04 0 0.99 0 1.57 0.18v4.54q0 0.94 0.21 1.69c-0.47 0-1.2 0-1.78 0q-1.42 0-2.21-0.86"/>
	<path class="s0" d="m300.79 171.01v3.1h-3.51v-3.1z"/>
	<path class="s0" d="m305.66 171.01v3.1h-3.51v-3.1z"/>
	<path class="s0" d="m313.53 151.65v3.08h-3.52v-3.08z"/>
	<path class="s0" d="m344.61 168.14c0.89 0.52 1.93 0.78 3.02 0.78h2.06q-0.11 0.62-0.39 1.07c-0.28 0.47-0.75 0.81-1.35 1.07-0.6 0.26-1.41 0.42-2.4 0.55v3.2l1.35-0.15c1.93-0.32 3.39-0.92 4.46-1.72q1.6-1.23 1.8-4.02h7.34v-18.68h-3.36v15.77h-3.93v-8.94c-2.11-0.34-3.73-0.47-4.87-0.47-1.17 0-2.5 0.26-3.47 0.81-0.99 0.57-1.79 1.3-2.37 2.24q-0.81 1.42-0.81 3.15c0 1.17 0.27 2.32 0.79 3.21q0.75 1.4 2.13 2.13zm3.6-8.67c0.47 0 0.96 0 1.53 0.18v6.33h-1.53c-0.99 0-1.72-0.31-2.24-0.86q-0.76-0.83-0.76-2.32 0-3.33 3-3.33z"/>
	<path class="s0" d="m368.09 150.19v18.68h-3.42v-18.68z"/>
	<path class="s0" d="m387.1 151.65v3.08h-3.49v-3.08z"/>
	<path class="s0" d="m382.23 151.65v3.08h-3.49v-3.08z"/>
	<path class="s0" d="m421.88 168.87q1.15 0 2.14-0.47c0.63-0.34 1.15-0.75 1.59-1.35q0.83 1.01 1.74 1.4 0.95 0.41 2.48 0.42h3.2q1.19 0 2.14-0.47c0.65-0.34 1.15-0.75 1.59-1.35q0.83 1.01 1.75 1.4c0.59 0.27 1.45 0.42 2.47 0.42h12.84q2.38 0.01 3.94-1.93 0.73 0.9 1.82 1.44c0.73 0.34 1.38 0.47 1.98 0.47h5.81v-18.71h-3.39v15.79h-2.42c-0.68 0-1.25-0.08-1.61-0.29-0.39-0.23-0.73-0.52-0.99-0.96q0.39-1.33 0.39-2.69c0-1.48-0.39-2.91-1.18-4.11q-1.12-1.85-3.25-2.95c-1.41-0.73-3.1-1.06-5.03-1.06h-3v2.91h2.95q1.92 0.02 3.33 0.73c0.91 0.47 1.59 1.15 2.06 1.96 0.47 0.8 0.68 1.74 0.68 2.73 0 0.99-0.16 1.54-0.47 2.11q-0.5 0.83-1.2 1.23-0.7 0.39-1.41 0.39h-0.54c0.8-0.76 1.22-1.67 1.22-2.82 0-1.17-0.21-1.58-0.6-2.37-0.36-0.75-0.96-1.4-1.8-1.87-0.8-0.47-1.74-0.73-2.94-0.73-1.2 0-1.95 0.23-2.79 0.7q-1.21 0.71-1.87 1.8-0.69 1.13-0.68 2.34c0 1.23 0.39 2.22 1.2 2.9h-3q-1.39-0.01-2.08-0.21c-0.47-0.13-0.86-0.39-1.25-0.81q0.13-0.65 0.13-1.28v-7.14h-3.41v6.62q0 1.29-0.71 2.06-0.7 0.76-1.67 0.76h-2.16q-1.4-0.01-2.11-0.21-0.69-0.19-1.22-0.81 0.13-0.65 0.13-1.28v-7.14h-3.44v6.62q0.01 1.29-0.68 2.06-0.7 0.76-1.67 0.76h-31.21q-0.91 0-1.4-0.5-0.47-0.51-0.47-1.8v-6.64c-2.11-0.34-3.73-0.47-4.85-0.47-1.12 0-2.47 0.26-3.46 0.81-0.99 0.57-1.8 1.3-2.3 2.24-0.57 0.94-0.83 2.01-0.83 3.15 0 1.17 0.26 2.32 0.78 3.21 0.52 0.96 1.25 1.64 2.14 2.13 0.88 0.52 1.95 0.78 3.05 0.78 1.61 0 3.62-0.39 4.22-0.47 0.6 0.29 1.27 0.47 2.13 0.47h33.27zm24.86-7.21c0.36-0.37 0.8-0.58 1.4-0.58 0.6 0 0.89 0.13 1.28 0.34 0.34 0.24 0.65 0.52 0.81 0.86q0.31 0.52 0.31 1.04c0 0.76-0.18 1.36-0.57 1.88q-0.56 0.72-1.54 0.73h-0.08c-1.41-0.44-2.14-1.33-2.14-2.71 0-1.35 0.16-1.22 0.55-1.61m-66.2 3.51q-0.75-0.83-0.75-2.32-0.01-3.32 2.99-3.33c2.01 0 0.99 0 1.54 0.16v4.53c0 0.65 0.08 1.2 0.21 1.72-0.47 0-1.2 0-1.75 0-0.93 0-1.72-0.29-2.24-0.86"/>
	<path class="s0" d="m427.95 153.06h-2.84c-0.1-0.18-0.2-0.42-0.2-0.73 0-0.29 0.1-0.52 0.2-0.68q0.26-0.27 0.6-0.26c0.26 0 0.45 0 0.71 0.13l0.6-1.85c-0.58-0.16-1.05-0.26-1.51-0.26-0.86 0-1.49 0.26-2.01 0.73-0.52 0.47-0.73 1.12-0.73 1.93 0 0.81 0.08 0.65 0.26 0.99h-1.2l-0.42 2.08h6.54z"/>
	<path class="s0" d="m439.44 171.01v3.1h-3.49v-3.1z"/>
	<path class="s0" d="m434.57 171.01v3.1h-3.49v-3.1z"/>
	<path class="s0" d="m474.95 150.19v18.68h-3.44v-18.68z"/>
	<path class="s0" d="m258.46 200.32v3.07h-3.52v-3.07z"/>
	<path class="s0" d="m263.33 200.32v3.07h-3.52v-3.07z"/>
	<path class="s0" d="m281.28 180.93v3.08h-3.52v-3.08z"/>
	<path class="s0" d="m277.81 195.26h-2.89q-0.91 0-1.43-0.52c-0.29-0.34-0.47-0.94-0.47-1.8v-9.79h-5.26c-2.03 0-3.57 0.57-4.54 1.64q-1.43 1.6-1.43 4.06v6.41h-4.38q-3.59 0.02-3.59-3.25v-5.89h-3.41v6.46q-0.02 2.42 1.46 4.06c0.93 1.07 2.47 1.62 4.53 1.62h8.75v-8.81q0-3.29 3.6-3.31h0.81v7.4q0.01 2.15 1.12 3.44c0.73 0.84 1.79 1.28 3.15 1.28h7.37v-12.12h-3.39v9.2z"/>
	<path class="s0" d="m288.29 179.48v18.7h-3.42v-18.7z"/>
	<path class="s0" d="m334.74 200.32v3.07h-3.52v-3.07z"/>
	<path class="s0" d="m346.7 200.32v3.07h-3.49v-3.07z"/>
	<path class="s0" d="m341.82 200.32v3.07h-3.49v-3.07z"/>
	<path class="s0" d="m375.3 195.26h-2.42c-0.99 0-1.67-0.08-2.11-0.21-0.42-0.13-0.83-0.44-1.23-0.8 0.08-0.52 0.13-0.97 0.13-1.25v-7.92h-3.43v7.4c0 0.93-0.21 1.66-0.63 2.11q-0.66 0.69-1.64 0.67c-0.63 0-1.28-0.18-1.8-0.54q-0.81-0.58-0.81-1.67v-6.93h-3.41v6.36q0.01 1.28-0.68 2.05-0.7 0.79-1.66 0.79h-1.51v-9.2h-3.42v9.2h-2.45c-0.93 0-1.61-0.11-2.08-0.24-0.47-0.1-0.86-0.36-1.25-0.81q0.13-0.62 0.13-1.27v-7.14h-3.41v6.62q0.01 1.28-0.68 2.05-0.7 0.79-1.67 0.79h-2.19c-1.06 0-1.87-0.32-2.34-0.92q0.12-0.64 0.13-1.35v-6.91h-3.44v6.39q0.01 1.28-0.68 2.06-0.7 0.75-1.66 0.75h-30.54c-1.12 0-1.93-0.34-2.47-1.07v-8.13h-3.42v11.47c0 0.81-0.13 1.4-0.33 1.87q-0.35 0.67-1.05 0.99c-0.47 0.21-1.07 0.34-1.87 0.47v3.21l1.35-0.13q2.35-0.25 3.83-1.75 1.44-1.49 1.43-4.66c0.86 0.47 1.67 0.73 2.51 0.73h31.55c1.45 0 2.65-0.52 3.49-1.59 0.52 0.52 1.06 0.91 1.72 1.17q0.99 0.39 1.74 0.39h3.21q1.17-0.01 2.16-0.49c0.62-0.34 1.14-0.76 1.56-1.36q0.87 1.02 1.77 1.41c0.6 0.26 1.44 0.44 2.48 0.44h8.36c1.46 0 2.66-0.57 3.57-1.64 0.47 0.55 1.02 0.94 1.67 1.25 0.62 0.26 1.53 0.42 2.63 0.42 1.12 0 1.64-0.16 2.37-0.52 0.73-0.34 1.28-0.81 1.74-1.41 0.55 0.73 1.15 1.2 1.8 1.51 0.65 0.26 1.46 0.42 2.53 0.42h5.81v-18.68h-3.39v15.79z"/>
	<path class="s0" d="m386.3 179.48v18.7h-3.42v-18.7z"/>
	<path class="s0" d="m402.97 183.04v3.08h-3.49v-3.08z"/>
	<path class="s0" d="m446.45 186.61c-0.96-0.54-2.14-0.8-3.44-0.8-1.33 0-2.76 0.18-4.9 0.46v8.94h-30.03v-9.2h-3.44v13.58h-2.87q-3.59-0.02-3.59-3.31v-4.22h-3.42v4.74c0 1.62 0.47 3 1.46 4.06 0.94 1.07 2.48 1.62 4.54 1.62h7.32v-4.35h40.09c0.99-2.58 1.46-4.59 1.46-6.12 0-1.54-0.26-2.22-0.81-3.16-0.57-0.93-1.33-1.72-2.37-2.24zm-0.83 8.65h-4.07v-6.33c0.55-0.13 1.07-0.15 1.54-0.15 1.95 0 3 1.09 3 3.33 0 2.22-0.19 2.01-0.47 3.15z"/>
	<path class="s0" d="m456.38 183.25h4.87v-1.59h-2.09c-0.2-0.13-0.31-0.28-0.31-0.54 0-0.26 0-0.26 0.18-0.34 0.08-0.11 0.27-0.13 0.4-0.13q0.39 0 1.09 0.21l0.39-1.59q-1.01-0.33-1.67-0.34c-0.41 0-1.01 0.18-1.33 0.52-0.28 0.34-0.46 0.75-0.46 1.28 0 0.52 0.1 0.59 0.26 0.88h-0.89l-0.44 1.59z"/>
	<path class="s0" d="m471.57 195.26h-2.95c-0.65 0-1.07-0.18-1.4-0.52q-0.49-0.51-0.5-1.8v-13.93h-3.41v14.46q0 0.31 0 0.91c-0.76 0.47-1.75 0.7-3 0.83h-0.08v-9.74h-3.41v9.79h-4.32v2.92h7.21c1.64 0 3.13-0.52 4.51-1.51q1.14 1.5 3.33 1.51h7.3v-18.7h-3.36v15.78h0.02z"/>
	<path class="s0" d="m255.83 220.4c0.73 1.07 1.38 2.01 1.79 2.82h0.06c-0.06-1.36-0.08-2.3-0.08-2.95v-4.69h1.87v10.35h-2l-3.39-4.8c-0.6-0.8-1.2-1.79-1.82-2.86h-0.06q0.08 1.92 0.08 2.94v4.72h-1.87v-10.35h2z"/>
	<path class="s0" d="m266.19 225.15c-0.1 0.13-0.23 0.2-0.39 0.33q-0.2 0.19-0.52 0.37c-0.15 0.08-0.39 0.15-0.6 0.23-0.2 0-0.47 0.11-0.73 0.11-0.26 0-0.67 0-0.96-0.19-0.31-0.13-0.57-0.26-0.83-0.46q-0.32-0.32-0.5-0.76-0.19-0.48-0.18-0.99c0-0.34 0.08-0.78 0.21-1.07q0.2-0.5 0.6-0.81c0.26-0.23 0.6-0.39 0.93-0.52q0.58-0.19 1.2-0.18c0.45 0 0.65 0 0.91 0 0.27 0 0.53 0.11 0.73 0.13v-0.29c0-0.18 0-0.33-0.1-0.52-0.03-0.18-0.16-0.28-0.29-0.41q-0.2-0.2-0.52-0.32-0.31-0.13-0.75-0.13c-0.32 0-0.73 0-1.12 0.13-0.39 0.08-0.76 0.21-1.2 0.4v-1.46q0.58-0.24 1.2-0.39 0.62-0.13 1.33-0.13c0.46 0 1.01 0.1 1.45 0.23 0.42 0.13 0.76 0.29 1.02 0.55q0.38 0.38 0.65 0.8 0.2 0.51 0.21 1.05v5.02h-1.67l-0.08-0.8zm-0.18-2.4c-0.15 0-0.39-0.08-0.6-0.13-0.21 0-0.47 0-0.67 0q-0.69-0.01-1.07 0.26-0.39 0.29-0.39 0.81c0 0.34 0 0.31 0.07 0.44 0.11 0.13 0.14 0.21 0.27 0.29q0.13 0.11 0.33 0.18 0.19 0 0.45 0c0.15 0 0.34 0 0.49-0.1 0.18 0 0.31-0.13 0.47-0.16q0.21-0.13 0.39-0.26c0.13-0.08 0.21-0.18 0.31-0.26v-1.15 0.08z"/>
	<path class="s0" d="m274.53 225.95c-0.21 0-0.47 0.13-0.73 0.13-0.26 0-0.57 0-0.81 0q-0.98 0.02-1.53-0.28c-0.39-0.21-0.71-0.52-0.86-0.92-0.13-0.23-0.18-0.62-0.18-1.09v-3.91h-1.41v-1.48h1.41v-2.09h1.84v2.09h2.17v1.48h-2.17v3.65c0 0.29 0 0.52 0.14 0.65q0.23 0.35 0.93 0.34c0.47 0 0.42 0 0.63 0 0.23 0 0.44-0.1 0.6-0.13v1.56z"/>
	<path class="s0" d="m275.94 214.75h1.93v2.03h-1.93zm0.05 3.68h1.82v7.47h-1.82z"/>
	<path class="s0" d="m287.06 222.2c0 0.6-0.1 1.12-0.26 1.62-0.18 0.47-0.44 0.91-0.78 1.25q-0.5 0.5-1.2 0.8c-0.47 0.19-0.96 0.32-1.54 0.32q-0.83 0-1.58-0.32c-0.47-0.15-0.84-0.46-1.18-0.8-0.36-0.34-0.57-0.78-0.73-1.25q-0.26-0.71-0.26-1.62 0-0.88 0.26-1.61c0.16-0.47 0.42-0.92 0.76-1.25q0.5-0.51 1.2-0.81c0.47-0.18 0.99-0.31 1.53-0.31q0.88 0 1.59 0.31c0.47 0.15 0.86 0.47 1.2 0.81 0.34 0.33 0.55 0.78 0.73 1.25q0.25 0.71 0.26 1.61zm-1.93 0c0-0.39-0.05-0.78-0.13-1.07q-0.13-0.44-0.39-0.78c-0.15-0.21-0.39-0.34-0.6-0.47-0.2-0.08-0.46-0.15-0.75-0.15-0.31 0-0.52 0-0.73 0.15q-0.36 0.16-0.6 0.47-0.26 0.34-0.39 0.78-0.12 0.44-0.13 1.07 0.01 0.63 0.13 1.07 0.13 0.44 0.39 0.78c0.16 0.21 0.36 0.34 0.6 0.47 0.21 0.08 0.47 0.16 0.75 0.16 0.32 0 0.53 0 0.79-0.16q0.32-0.16 0.6-0.47 0.26-0.34 0.36-0.78 0.14-0.44 0.13-1.07"/>
	<path class="s0" d="m290.35 219.52c0.13-0.18 0.26-0.31 0.41-0.47q0.27-0.27 0.58-0.39 0.29-0.19 0.67-0.26c0.26-0.08 0.52-0.08 0.81-0.08 0.31 0 0.57 0 0.81 0.08 0.26 0 0.47 0.18 0.7 0.28 0.21 0.13 0.37 0.32 0.55 0.53 0.18 0.2 0.28 0.46 0.39 0.72 0.03 0.19 0.08 0.34 0.08 0.53v5.49h-1.85v-5.08q0-0.19-0.08-0.39-0.11-0.36-0.42-0.49c-0.18-0.11-0.44-0.19-0.67-0.19-0.27 0-0.71 0.08-1.05 0.26-0.34 0.19-0.6 0.42-0.86 0.73v5.16h-1.82v-7.47h1.48l0.19 1.04z"/>
	<path class="s0" d="m301.89 225.15c-0.08 0.13-0.21 0.2-0.39 0.33q-0.19 0.19-0.5 0.37-0.28 0.12-0.6 0.23c-0.21 0-0.47 0.11-0.73 0.11-0.26 0-0.68 0-0.99-0.19-0.28-0.13-0.55-0.26-0.81-0.46q-0.31-0.32-0.52-0.76c-0.13-0.31-0.15-0.65-0.15-0.99 0-0.34 0.08-0.78 0.21-1.07q0.2-0.5 0.59-0.81c0.27-0.23 0.6-0.39 0.94-0.52 0.39-0.13 0.76-0.18 1.2-0.18 0.42 0 0.65 0 0.89 0 0.26 0 0.52 0.11 0.73 0.13v-0.29c0-0.18 0-0.33-0.08-0.52-0.05-0.18-0.18-0.28-0.31-0.41q-0.17-0.2-0.5-0.32-0.34-0.13-0.78-0.13c-0.29 0-0.73 0-1.1 0.13q-0.58 0.12-1.19 0.4v-1.46q0.54-0.24 1.19-0.39 0.62-0.13 1.31-0.13c0.49 0 1.04 0.1 1.46 0.23 0.44 0.13 0.78 0.29 1.04 0.55 0.23 0.26 0.47 0.52 0.62 0.8q0.21 0.51 0.21 1.05v5.02h-1.67l-0.07-0.8zm-0.16-2.4c-0.18 0-0.39-0.08-0.6-0.13q-0.35 0-0.7 0-0.69-0.01-1.07 0.26c-0.26 0.18-0.37 0.47-0.37 0.81 0 0.34 0 0.31 0.08 0.44 0.08 0.13 0.13 0.21 0.26 0.29q0.13 0.11 0.34 0.18 0.19 0 0.42 0c0.18 0 0.34 0 0.52-0.1 0.18 0 0.29-0.13 0.47-0.16q0.18-0.13 0.39-0.26c0.13-0.08 0.21-0.18 0.29-0.26v-1.15 0.08z"/>
	<path class="s0" d="m307.54 214.75v11.2h-1.85v-11.2z"/>
	<path class="s0" d="m318.2 216.99q-0.79 0-1.44 0.26c-0.41 0.16-0.81 0.42-1.09 0.73-0.31 0.34-0.58 0.7-0.73 1.17q-0.27 0.75-0.26 1.64-0.01 0.91 0.26 1.62 0.24 0.7 0.68 1.17c0.31 0.29 0.67 0.55 1.12 0.68 0.41 0.16 0.93 0.26 1.46 0.26 0.49 0 0.8 0 1.17-0.1 0.44 0 0.78-0.16 1.17-0.24v1.62c-0.34 0.07-0.78 0.15-1.17 0.26-0.42 0-0.84 0.08-1.28 0.08q-1.33 0-2.29-0.4-1.05-0.37-1.67-1.06-0.66-0.69-1.04-1.62c-0.21-0.65-0.34-1.33-0.34-2.11 0-0.75 0.13-1.54 0.34-2.16q0.38-1.06 1.04-1.77 0.69-0.75 1.69-1.15 1.05-0.42 2.32-0.42c0.86 0 0.86 0 1.23 0.08 0.39 0 0.73 0.13 1.09 0.26v1.62q-0.65-0.18-1.17-0.26c-0.34 0-0.68-0.08-1.02-0.08"/>
	<path class="s0" d="m320.67 218.45h1.95l1.12 2.74q0.66 1.53 0.89 2.29 0.18-0.58 0.83-2.14l1.15-2.86h2.01l-4.82 11.12h-1.8l1.69-4.01-3.07-7.11z"/>
	<path class="s0" d="m336.95 222.07q0.02 1.02-0.28 1.8-0.34 0.78-0.79 1.28c-0.28 0.33-0.67 0.59-1.06 0.72q-0.6 0.27-1.2 0.27c-0.39 0-0.55 0-0.78-0.08q-0.33-0.15-0.58-0.26c-0.18-0.08-0.31-0.21-0.44-0.34-0.13-0.13-0.21-0.21-0.26-0.31l-0.16 0.8h-1.51v-11.2h1.85v4.17q0.18-0.13 0.39-0.26 0.2-0.11 0.47-0.21c0.16 0 0.34-0.13 0.5-0.13q0.28 0 0.6 0c0.44 0 0.83 0.08 1.25 0.21q0.57 0.24 1.07 0.68c0.28 0.31 0.54 0.72 0.72 1.19 0.16 0.47 0.27 1.07 0.27 1.67m-1.98 0.08c0-0.47-0.03-0.83-0.16-1.2q-0.18-0.51-0.44-0.75c-0.16-0.19-0.39-0.32-0.55-0.34-0.21 0-0.39-0.11-0.6-0.11-0.21 0-0.55 0-0.81 0.18-0.31 0.13-0.52 0.27-0.78 0.42v3.6q0.13 0.13 0.26 0.26c0.08 0.08 0.21 0.18 0.34 0.26q0.18 0.11 0.44 0.18c0.16 0 0.29 0.08 0.5 0.08 0.21 0 0.57 0 0.78-0.18 0.21-0.13 0.42-0.29 0.55-0.5 0.18-0.23 0.26-0.47 0.33-0.83q0.14-0.45 0.14-1.02"/>
	<path class="s0" d="m342.42 224.68c0.34 0 0.73 0 1.12-0.13 0.4-0.08 0.76-0.16 1.2-0.29v1.46c-0.26 0.08-0.6 0.21-1.12 0.28q-0.7 0.14-1.53 0.14c-0.55 0-1.02-0.08-1.49-0.21-0.47-0.13-0.91-0.34-1.25-0.65-0.34-0.29-0.65-0.68-0.86-1.2-0.21-0.47-0.29-1.07-0.29-1.75q-0.01-1.01 0.29-1.8 0.31-0.78 0.78-1.27 0.5-0.52 1.15-0.78 0.62-0.25 1.33-0.26c0.47 0 0.88 0.1 1.33 0.23q0.58 0.2 1.01 0.68c0.31 0.28 0.52 0.73 0.68 1.2 0.18 0.46 0.26 1.06 0.26 1.69v0.65h-4.9q0.01 0.51 0.21 0.91 0.19 0.34 0.49 0.6c0.24 0.16 0.47 0.24 0.73 0.34 0.32 0.08 0.6 0.08 0.92 0.08m-0.79-4.93c-0.2 0-0.41 0-0.59 0.13-0.16 0.13-0.34 0.21-0.47 0.34-0.13 0.13-0.26 0.32-0.29 0.52-0.1 0.21-0.13 0.39-0.18 0.66h2.94c0-0.24 0-0.45-0.08-0.66-0.07-0.2-0.13-0.39-0.26-0.52q-0.19-0.21-0.41-0.34-0.28-0.12-0.6-0.13"/>
	<path class="s0" d="m351.15 219.88h-0.18c-0.55 0-1.07 0.11-1.49 0.26-0.41 0.19-0.78 0.45-0.99 0.78v5.03h-1.82v-7.47h1.49l0.18 1.04q0.31-0.6 0.88-0.91 0.6-0.33 1.38-0.34c0.5 0 0.34 0 0.47 0v1.61z"/>
	<path class="s0" d="m355.55 223.79q0-0.26-0.13-0.39c-0.07-0.08-0.2-0.18-0.33-0.26q-0.27-0.12-0.53-0.16c-0.2 0-0.36-0.1-0.59-0.18q-0.37-0.13-0.76-0.26-0.39-0.13-0.65-0.39c-0.16-0.16-0.34-0.34-0.47-0.6-0.13-0.23-0.16-0.5-0.16-0.83 0-0.37 0.08-0.79 0.21-1.07q0.2-0.47 0.6-0.78 0.38-0.31 0.89-0.42c0.34-0.1 0.67-0.13 1.06-0.13 0.4 0 0.92 0 1.28 0.13 0.39 0.08 0.78 0.16 1.12 0.29v1.51c-0.15 0-0.34-0.13-0.55-0.19-0.18 0-0.39-0.07-0.57-0.13-0.21 0-0.36-0.07-0.55-0.07h-0.54q-0.29 0-0.58 0c-0.1 0-0.23 0.07-0.36 0.15q-0.16 0.15-0.24 0.26-0.01 0.12-0.02 0.32c0 0.13 0.02 0.28 0.13 0.41q0.13 0.19 0.39 0.26 0.25 0.12 0.49 0.16c0.19 0 0.34 0.1 0.53 0.13 0.26 0 0.52 0.13 0.75 0.23q0.39 0.13 0.7 0.37 0.31 0.26 0.5 0.6c0.13 0.26 0.23 0.57 0.23 0.94 0 0.39-0.1 0.83-0.26 1.12-0.18 0.31-0.39 0.6-0.67 0.78q-0.47 0.31-1.05 0.47c-0.39 0.08-0.86 0.15-1.32 0.15-0.47 0-0.89 0-1.28-0.13-0.39-0.08-0.68-0.15-0.94-0.28v-1.51c0.39 0.18 0.76 0.26 1.12 0.31 0.34 0 0.63 0.08 0.94 0.08 0.29 0 0.42 0 0.62 0 0.21 0 0.4-0.08 0.53-0.16q0.2-0.15 0.33-0.26 0.13-0.21 0.13-0.39"/>
	<path class="s0" d="m362.82 224.68c0.34 0 0.73 0 1.12-0.13 0.39-0.08 0.76-0.16 1.2-0.29v1.46c-0.26 0.08-0.6 0.21-1.12 0.28q-0.7 0.14-1.54 0.14c-0.54 0-1.01-0.08-1.51-0.21q-0.71-0.19-1.22-0.65c-0.34-0.29-0.65-0.68-0.86-1.2-0.21-0.47-0.29-1.07-0.29-1.75q-0.01-1.01 0.29-1.8 0.31-0.78 0.78-1.27 0.5-0.52 1.15-0.78 0.62-0.25 1.33-0.26c0.46 0 0.88 0.1 1.32 0.23 0.37 0.13 0.73 0.36 1.02 0.68 0.31 0.28 0.52 0.73 0.68 1.2 0.18 0.46 0.26 1.06 0.26 1.69v0.65h-4.93c0 0.34 0.11 0.65 0.24 0.91q0.19 0.34 0.49 0.6c0.24 0.16 0.47 0.24 0.73 0.34 0.32 0.08 0.6 0.08 0.92 0.08m-0.79-4.93c-0.2 0-0.41 0-0.6 0.13-0.15 0.13-0.33 0.21-0.46 0.34-0.13 0.13-0.27 0.32-0.29 0.52-0.11 0.21-0.13 0.39-0.18 0.66h2.94c0-0.24 0-0.45-0.08-0.66-0.08-0.2-0.13-0.39-0.26-0.52q-0.19-0.21-0.42-0.34-0.28-0.12-0.59-0.13"/>
	<path class="s0" d="m372.49 225.8c-0.21 0.07-0.52 0.15-0.86 0.26-0.34 0.08-0.68 0.08-1.07 0.08-0.55 0-1.07-0.08-1.48-0.21-0.47-0.19-0.92-0.39-1.25-0.68-0.34-0.31-0.66-0.73-0.81-1.2q-0.32-0.7-0.32-1.72c0-0.68 0.14-1.33 0.37-1.85 0.21-0.49 0.49-0.94 0.89-1.22 0.39-0.34 0.78-0.58 1.25-0.73 0.46-0.18 0.88-0.21 1.35-0.21 0.47 0 0.65 0 0.99 0.08 0.29 0 0.6 0.13 0.86 0.26v1.48q-0.33-0.11-0.73-0.26c-0.26 0-0.52-0.08-0.81-0.08-0.31 0-0.57 0-0.86 0.13q-0.4 0.12-0.73 0.42-0.31 0.34-0.52 0.78c-0.13 0.34-0.15 0.73-0.15 1.15 0 0.44 0 0.65 0.13 0.94 0.1 0.31 0.21 0.57 0.41 0.73 0.19 0.23 0.39 0.39 0.68 0.52q0.4 0.19 0.99 0.18c0.39 0 0.65 0 0.89-0.1q0.39-0.13 0.78-0.26z"/>
	<path class="s0" d="m377.41 226.14c-0.78 0-1.38-0.14-1.87-0.4-0.52-0.26-0.86-0.59-1.12-1.01-0.26-0.44-0.21-0.47-0.32-0.78-0.07-0.29-0.07-0.6-0.07-0.94v-4.56h1.85v4.4q0 0.37 0 0.63c0 0.18 0.07 0.34 0.15 0.47q0.21 0.34 0.52 0.52c0.21 0.13 0.52 0.18 0.81 0.18 0.31 0 0.6 0 0.86-0.18 0.26-0.13 0.42-0.29 0.52-0.55 0.13-0.26 0.16-0.6 0.16-1.04v-4.43h1.85v4.56q0 0.9-0.32 1.54c-0.2 0.44-0.26 0.46-0.46 0.65-0.16 0.21-0.42 0.34-0.68 0.52q-0.39 0.2-0.86 0.28-0.5 0.13-1.07 0.14"/>
	<path class="s0" d="m387.21 219.88h-0.18c-0.55 0-1.07 0.11-1.49 0.26q-0.67 0.28-0.99 0.78v5.03h-1.85v-7.47h1.54l0.18 1.04q0.31-0.6 0.89-0.91 0.59-0.33 1.38-0.34c0.52 0 0.34 0 0.47 0v1.61z"/>
	<path class="s0" d="m388.28 214.75h1.92v2.03h-1.92zm0.02 3.68h1.85v7.47h-1.85z"/>
	<path class="s0" d="m396.77 225.95c-0.21 0-0.47 0.13-0.73 0.13-0.23 0-0.55 0-0.81 0q-0.94 0.02-1.53-0.28-0.59-0.32-0.86-0.92c-0.13-0.23-0.16-0.62-0.16-1.09v-3.91h-1.41v-1.48h1.41v-2.09h1.82v2.09h2.19v1.48h-2.19v3.65c0 0.29 0 0.52 0.13 0.65 0.19 0.24 0.47 0.34 0.94 0.34 0.47 0 0.44 0 0.65 0 0.21 0 0.42-0.1 0.6-0.13v1.56z"/>
	<path class="s0" d="m397.29 218.45h1.95l1.12 2.74q0.66 1.53 0.92 2.29c0.13-0.39 0.36-1.1 0.8-2.14l1.15-2.86h2.01l-4.82 11.12h-1.8l1.72-4.01-3.1-7.11h0.05z"/>
	<path class="s0" d="m415.81 223.32h-3.9l-1.02 2.63h-2.01l4.09-10.34h1.78l4.09 10.34h-2.01zm-1.95-5.21c-0.37 1.07-0.71 2.01-0.99 2.74l-0.34 0.94h2.68l-0.34-0.94c-0.31-0.73-0.6-1.62-0.99-2.74z"/>
	<path class="s0" d="m423.37 226.14c-0.76 0-1.36-0.14-1.88-0.4-0.52-0.26-0.86-0.59-1.12-1.01-0.26-0.44-0.21-0.47-0.28-0.78-0.08-0.29-0.08-0.6-0.08-0.94v-4.56h1.82v4.4q0 0.37 0 0.63 0.01 0.27 0.18 0.47 0.19 0.34 0.5 0.52 0.36 0.19 0.83 0.18c0.29 0 0.6 0 0.84-0.18 0.26-0.13 0.44-0.29 0.52-0.55q0.19-0.38 0.18-1.04v-4.43h1.82v4.56q0.02 0.9-0.28 1.54c-0.21 0.44-0.26 0.46-0.47 0.65-0.18 0.21-0.44 0.34-0.71 0.52-0.23 0.13-0.54 0.23-0.83 0.28q-0.53 0.13-1.07 0.14"/>
	<path class="s0" d="m433.29 225.95c-0.2 0-0.46 0.13-0.72 0.13q-0.41 0-0.81 0c-0.65 0-1.15-0.08-1.54-0.28q-0.59-0.32-0.86-0.92c-0.13-0.23-0.18-0.62-0.18-1.09v-3.91h-1.41v-1.48h1.41v-2.09h1.85v2.09h2.19v1.48h-2.19v3.65c0 0.29 0 0.52 0.13 0.65q0.23 0.35 0.94 0.34c0.47 0 0.41 0 0.65 0 0.21 0 0.41-0.1 0.6-0.13v1.56z"/>
	<path class="s0" d="m436.63 217.8v0.94c0 0.26 0 0.47-0.08 0.67q0.2-0.2 0.37-0.41 0.26-0.19 0.52-0.39 0.26-0.13 0.65-0.26c0.26-0.08 0.49-0.08 0.81-0.08 0.28 0 0.47 0 0.73 0.08 0.2 0 0.46 0.13 0.62 0.23 0.24 0.08 0.39 0.23 0.57 0.36 0.16 0.19 0.29 0.34 0.42 0.6q0.16 0.32 0.21 0.71c0.05 0.23 0.1 0.54 0.1 0.88v4.82h-1.85v-5.1c0-0.13 0-0.26-0.13-0.39-0.13-0.21-0.26-0.4-0.47-0.47-0.2-0.11-0.41-0.13-0.67-0.13-0.26 0-0.68 0.07-0.99 0.26-0.29 0.15-0.6 0.41-0.81 0.73v5.15h-1.85v-11.2h1.85v3.08z"/>
	<path class="s0" d="m450.75 222.2c0 0.6-0.1 1.12-0.26 1.62-0.18 0.47-0.44 0.91-0.78 1.25q-0.5 0.5-1.2 0.8c-0.47 0.19-0.96 0.32-1.54 0.32q-0.83 0-1.59-0.32c-0.47-0.15-0.83-0.46-1.17-0.8-0.36-0.34-0.57-0.78-0.73-1.25q-0.27-0.71-0.26-1.62-0.01-0.88 0.26-1.61c0.16-0.47 0.42-0.92 0.76-1.25q0.5-0.51 1.2-0.81c0.46-0.18 0.99-0.31 1.53-0.31q0.88 0 1.59 0.31c0.47 0.15 0.86 0.47 1.2 0.81 0.34 0.33 0.55 0.78 0.73 1.25q0.25 0.71 0.26 1.61zm-1.9 0c0-0.39 0-0.78-0.13-1.07q-0.15-0.43-0.37-0.78c-0.18-0.21-0.39-0.34-0.6-0.47-0.2-0.08-0.47-0.15-0.78-0.15-0.28 0-0.52 0-0.73 0.15q-0.32 0.16-0.6 0.47-0.26 0.34-0.36 0.78-0.14 0.44-0.13 1.07c0 0.42 0 0.78 0.13 1.07 0.1 0.31 0.21 0.55 0.36 0.78 0.19 0.21 0.39 0.34 0.6 0.47 0.21 0.08 0.47 0.16 0.78 0.16 0.29 0 0.53 0 0.76-0.16q0.36-0.16 0.6-0.47 0.26-0.34 0.39-0.78 0.12-0.44 0.13-1.07"/>
	<path class="s0" d="m456.82 219.88h-0.18c-0.55 0-1.07 0.11-1.49 0.26q-0.67 0.28-0.99 0.78v5.03h-1.85v-7.47h1.51l0.16 1.04q0.34-0.6 0.91-0.91c0.39-0.21 0.86-0.34 1.36-0.34 0.52 0 0.34 0 0.47 0v1.61z"/>
	<path class="s0" d="m457.91 214.75h1.93v2.03h-1.93zm0.06 3.68h1.85v7.47h-1.85z"/>
	<path class="s0" d="m466.43 225.95c-0.2 0-0.47 0.13-0.73 0.13q-0.4 0-0.8 0c-0.65 0-1.15-0.08-1.54-0.28q-0.59-0.32-0.86-0.92c-0.13-0.23-0.18-0.62-0.18-1.09v-3.91h-1.41v-1.48h1.41v-2.09h1.85v2.09h2.19v1.48h-2.19v3.65c0 0.29 0 0.52 0.13 0.65q0.23 0.35 0.94 0.34c0.46 0 0.41 0 0.65 0 0.2 0 0.41-0.1 0.6-0.13v1.56z"/>
	<path class="s0" d="m466.95 218.45h1.96l1.12 2.74q0.62 1.53 0.88 2.29 0.19-0.58 0.84-2.14l1.14-2.86h2.01l-4.82 11.12h-1.8l1.7-4.01-3.08-7.11h0.05z"/>
</svg>