<svg version="1.2" xmlns="http://www.w3.org/2000/svg" viewBox="0 0 764.21 229.6" width="765" height="230">
	<title>digital2</title>
	<style>
		.s0 { fill: #6b7280 } 
	</style>
	<g>
	</g>
	<path class="s0" d="m400.21 117.42c-0.81 1.61-1.98 2.92-3.01 4.31-4.85 6.25-10.06 12.09-16.17 17.03-5.35 4.36-10.97 8.09-17.62 10.02-2.02 0.63-4.09 0.63-6.11 0.18-3.46-0.63-6.6-1.98-9.7-3.64-6.47-3.46-12.32-7.86-17.93-12.58-5.71-4.81-11.06-10.07-16.09-15.55-8.62-9.52-16.44-19.72-22.51-31.14-3.14-5.84-5.75-11.9-6.92-18.51-0.81-4.36-0.67-8.76 0.68-13.03 0.13-0.4 0.4-0.85 0.58-1.3 0.31-0.09 0.36-0.41 0.36-0.68 0.49-0.17 0.81-0.62 1.17-1.03 3.41-4.22 7.41-7.77 12.04-10.56 0.4 2.83 0.81 5.75 1.48 8.58 0.9 3.96 2.02 7.82 3.64 11.6 0.36 0.94 0.54 2.06 1.39 2.74q-0.14 0.6 0.32 1.08c0.31 0.67 0.9 1.25 0.81 2.06-0.41 0.32-0.5 0.59-0.23 1.04 0.81 1.66 1.08 3.46 1.49 5.25 0.58 2.79 1.57 5.44 2.56 8.14 1.66 4.58 3.77 8.89 6.33 13.07 2.07 3.46 4.36 6.74 7.01 9.84 3.24 3.78 6.88 7.01 10.74 9.98 3.33 2.56 7.05 4.58 10.87 6.38 4.36 2.02 8.99 3.1 13.66 4.09 1.67 0.35 3.42 0.09 5.22 0.4 0.44 0.04 0.98 0.04 1.43 0 0.9-0.31 1.85-0.31 2.79-0.31 1.53 0 2.87-0.59 4.31-1.04 0.41 0 0.9 0 1.35 0 1.62 0.81 3.33 0.81 5.08 1.17 3.77 0.72 7.46 0.04 10.96-1.12 3.33-1.17 6.29-3.01 8.76-5.53 0.41-0.4 0.68-0.9 1.4-0.67z"/>
	<path class="s0" d="m305.4 63.77c-0.85-0.72-0.98-1.8-1.43-2.7-1.62-3.77-2.7-7.68-3.64-11.59-0.68-2.88-1.04-5.71-1.49-8.58 0.14-2.07-0.31-4.14 0.14-6.2 0.81-7.51 4.27-13.62 9.79-18.69 5.44-4.99 11.82-8.23 18.65-10.61 8.04-2.78 16.31-4.31 24.76-5.03 5.44-0.41 10.92-0.5 16.35-0.18 7.73 0.49 15.37 1.75 22.78 4.13 1.44 0.5 2.93 0.95 4.32 1.44 0.18 0.32 0.45 0.49 0.81 0.63 2.33 0.81 4.45 2.02 6.47 3.46 2.06 1.39 3.91 2.88 5.03 5.21 1.71 3.78 2.56 7.77 2.7 11.86 0.13 5.31 0.44 10.61-0.45 15.95-0.36 2.39-0.54 4.86-0.86 7.28-0.18 1.49-0.54 2.97-0.72 4.5-0.27 1.7-0.58 3.46-1.3 4.98-0.67-0.8-0.63-1.84-0.94-2.78-2.2-8.36-5.8-16.18-10.92-23.19-0.68-0.94-1.8-1.43-2.2-2.6-0.23-0.41-0.45-0.81-0.77-1.17-1.12-1.3-2.33-2.47-3.59-3.6-3.82-3.5-8.31-5.66-13.44-6.38-3.64-0.58-7.37-1.07-11.09-0.94-2.88 0.14-5.76 0.45-8.59 0.49-1.16 0-2.33 0.23-3.46 0.36-3.82 0.63-7.59 1.35-11.32 2.34-8.13 2.25-15.91 5.21-22.96 9.98-5.03 3.37-9.44 7.45-12.04 13.16-0.54 1.26-0.9 2.56-1.21 3.86-0.86 3.24 0.04 6.52 0 9.8 0 0.54 0.18 1.17 0.53 1.62 0.14 1.03 0.27 2.15 0.09 3.19z"/>
	<path class="s0" d="m407.22 59.72c0.76-1.61 1.08-3.37 1.3-5.03 0.18-1.48 0.59-2.96 0.77-4.49 0.31-2.43 0.4-4.9 0.85-7.28 0.85-5.3 0.63-10.6 0.45-15.95-0.13-4.05-0.94-8.04-2.74-11.82-1.12-2.34-2.97-3.82-4.99-5.26-2.02-1.43-4.13-2.65-6.47-3.46-0.4-0.13-0.63-0.31-0.81-0.62 2.56 0.31 5.13 1.07 7.64 1.75 5.62 1.53 11.05 3.55 16.13 6.42 2.34 1.26 4.54 2.88 6.7 4.5 3.41 2.51 5.21 5.93 5.84 10.06 0.76 5.44 0.54 10.87-0.14 16.31-1.34 10.02-3.91 19.86-7.28 29.43-3.81 10.79-8.53 21.21-14.78 30.87-2.16 3.33-4.49 6.52-7.19 9.48-0.63 0.63-1.12 1.35-1.66 2.07-0.45 0-0.63 0.27-0.63 0.72-0.63-0.14-0.99 0.31-1.35 0.67-2.47 2.61-5.52 4.45-8.76 5.57-3.55 1.22-7.23 1.84-11.01 1.13-1.7-0.32-3.46-0.41-5.07-1.22 1.43-0.58 2.96-1.03 4.35-1.84 5.4-3.06 10.61-6.52 14.92-11.23 4.31-4.68 2.34-2.16 3.28-3.46 1.71-2.29 3.33-4.63 4.81-7.1 2.38-3.87 4-8.13 5.12-12.58 0.36-1.44 0.72-2.83 0.99-4.32 0.36-1.79 0.67-3.5 0.67-5.3 0.05-4.63 0.32-9.25-0.31-13.84-0.14-0.85 0.13-1.93-0.99-2.42-0.18-0.72 0.5-1.26 0.36-1.98z"/>
	<path class="s0" d="m298.98 34.79c-0.45 2.02 0 4.13-0.14 6.15q-6.91 4.27-12.04 10.56c-0.31 0.41-0.67 0.81-1.17 1.03 0-0.35 0.27-0.67 0.36-0.89 3.42-6.11 7.69-11.55 12.45-16.67 0.09-0.14 0.27-0.14 0.49-0.18z"/>
	<path class="s0" d="m400.21 117.42c0-0.45 0.14-0.68 0.63-0.72-0.09 0.27-0.27 0.58-0.63 0.72z"/>
	<path class="s0" d="m285.72 52.53c0 0.32-0.09 0.59-0.4 0.68q0-0.47 0.4-0.68z"/>
	<path class="s0" d="m306.57 66.91c1.31 2.38 2.52 4.77 3.87 7.06 4.04 6.83 8.71 13.16 14.15 18.96 6.25 6.65 13.21 12.44 21.12 17.03 3.28 1.84 6.6 3.46 10.15 4.63 0.45 0.13 0.95 0.22 1.26 0.53 0.5 1.31 1.8 1.62 2.79 2.3 3.55 2.33 7.28 4.4 11.45 5.57 0.5 0.09 0.81 0.49 1.26 0.67-1.43 0.41-2.83 1.04-4.31 1.04-0.94 0-1.89 0-2.79 0.31q-0.68 0.2-1.43 0c-1.71-0.31-3.6 0-5.26-0.45-4.63-0.99-9.3-2.02-13.62-4.04-3.81-1.8-7.54-3.82-10.87-6.38-3.91-2.97-7.55-6.25-10.74-9.98-2.65-3.1-4.94-6.38-7.05-9.84-2.47-4.13-4.63-8.49-6.29-13.07-0.99-2.65-1.89-5.31-2.56-8.14-0.41-1.75-0.72-3.59-1.49-5.25-0.27-0.45-0.13-0.81 0.23-1.13z"/>
	<path class="s0" d="m372.67 123.71c-0.41-0.18-0.72-0.54-1.22-0.68-4.22-1.12-7.9-3.19-11.5-5.57-0.99-0.58-2.29-0.99-2.78-2.25 2.92 0.59 5.79 1.35 8.76 1.58 7.01 0.58 13.12-1.31 18.15-6.2 4.31-4.14 7.59-9.03 10.38-14.29 5.39-10.07 9.03-20.8 11.73-31.86 0.27-0.9 0.45-1.84 0.63-2.69 1.03 0.49 0.85 1.52 0.98 2.38 0.63 4.67 0.41 9.3 0.32 13.84 0 1.75-0.41 3.55-0.67 5.3-0.32 1.48-0.72 2.92-0.99 4.36-1.13 4.4-2.74 8.62-5.13 12.58-1.48 2.47-3.19 4.81-4.85 7.1-0.9 1.21-2.16 2.29-3.23 3.46-4.36 4.62-9.48 8.13-14.97 11.23-1.34 0.72-2.87 1.21-4.31 1.8q-0.74 0-1.35 0z"/>
	<path class="s0" d="m305.4 63.77c0.41 0.27 0.41 0.67 0.32 1.12-0.32-0.31-0.45-0.67-0.32-1.12z"/>
	<path class="s0" d="m393.29 31.15c-0.31 0-0.63 0-0.81-0.23-3.82-3.5-8.58-4.85-13.52-5.7-3.69-0.63-7.46-0.9-11.23-0.77-5.31 0.14-10.47 0.68-15.73 1.66-7.73 1.44-15.19 3.6-22.29 6.79-6.29 2.88-12.22 6.29-17.03 11.32-3.46 3.55-5.97 7.64-6.96 12.58-0.27 1.31-0.14 2.61-0.32 3.82-0.35-0.49-0.58-1.12-0.58-1.61 0-3.24-0.9-6.52 0-9.8 0.4-1.3 0.76-2.61 1.26-3.82 2.6-5.75 6.92-9.84 12.04-13.21 7.01-4.76 14.78-7.73 22.96-9.93 3.69-0.99 7.5-1.75 11.28-2.34 1.17-0.22 2.34-0.4 3.46-0.4 2.83 0 5.75-0.36 8.58-0.49 3.77-0.18 7.46 0.4 11.1 0.94q7.61 1.09 13.48 6.42c1.21 1.17 2.51 2.3 3.55 3.55 0.31 0.41 0.58 0.77 0.76 1.22z"/>
	<path class="s0" d="m356.81 191.87c2.83-0.14 4.62-2.11 4.62-4.94 0-5.4 0-10.7 0-16.04 0-5.4 0-0.77 0-1.08 0-0.23-0.04-0.54-0.22-0.59-0.72-0.27-1.44-0.27-2.07 0-0.58 0.18-0.31 0.77-0.31 1.22 0 5.16 0 10.29 0 15.5 0 0.54 0 1.17-0.09 1.71-0.14 0.8-0.68 1.3-1.39 1.43q-1.85 0.36-3.69 0c-0.99-0.18-1.44-0.99-1.53-1.93-0.09-0.36 0-0.81 0-1.21 0-4.99 0-10.02 0-14.96 0-0.54 0.09-1.17-0.13-1.71q-2.43-0.45-2.43 1.8c0 5.12 0 10.15 0 15.27 0 2.07-0.72 2.88-2.69 2.79-1.17 0-2.61 0.49-3.42-0.32-0.67-0.67-0.18-2.02-0.18-3.05 0-2.25-0.9-3.91-2.65-5.08-1.89-1.35-4-1.53-6.15-0.45-2.12 1.08-3.28 2.74-3.33 5.21 0 1.22 0.18 2.38 0.58 3.78-1.79 0-3.37 0-4.98 0-1.13 0-1.8-0.81-1.93-1.98 0-0.45 0-0.81 0-1.26 0-5.3 0-10.56 0-15.86 0-1.12 0-1.03-1.44-1.12-0.81 0-1.31 0.09-1.26 1.12 0.04 2.16 0 4.32 0 6.47 0 3.37 0 6.7 0 10.07 0 1.66-0.81 2.42-2.47 2.47q-1.04 0-2.02 0c-0.18-0.68 0.22-1.04 0.4-1.4 0.63-1.25 0.81-2.6 0.63-3.95-0.45-3.59-3.37-6.2-7.14-6.2q-10.65 0-21.3 0c-0.36 0-0.95 0.27-1.26-0.36 2.11-1.53 4.09-3.14 6.25-4.63 1.48-0.99 1.97-2.15 1.48-3.82-0.05 0-0.18 0-0.18 0-4.14 2.92-8.22 5.8-12.36 8.72-0.63 0.4-0.9 1.53-0.67 2.34 0.27 0.81 0.99 0.49 1.48 0.49 0.54 0 1.17 0 1.8 0h24.31c0.98 0 1.97 0 2.92 0.54 1.7 1.12 2.56 3.1 2.06 4.81-0.54 2.06-2.33 3.41-4.53 3.41q-16.52 0-32.89 0c-2.12 0-2.75-0.67-2.75-2.78 0-1.89 0-3.87 0-5.8 0-0.72-0.18-1.12-0.98-1.03 0 0-0.14 0-0.18 0-1.53 0-1.53 0-1.53 1.48q0 2.77 0 5.62c0 1.66-0.81 2.47-2.47 2.47-1.67 0-3.28 0-4.95 0-3.1 0-2.92 0.18-2.78-2.74 0.13-3.19-2.97-6.47-6.47-6.11-2.56 0.27-4.27 1.61-5.12 3.95-0.95 2.34-0.41 4.76 1.48 6.43 1.8 1.66 3.86 2.02 6.15 1.21 0.5-0.18 1.04-0.27 0.81-1.03q-0.54-1.77-1.75-1.44c-0.58 0.22-1.21 0.4-1.89 0.22-1.79-0.49-2.78-2.06-2.51-3.91 0.22-1.52 1.75-2.78 3.37-2.69 1.75 0.04 3.1 1.48 3.14 3.37 0 0.67 0 1.43 0 2.11 0 2.38 0.95 3.32 3.28 3.32q3.69 0 7.42 0c0.54 0 1.17 0 1.7-0.22 2.16-0.72 2.16-0.72 3.82 0 0.63 0.22 1.26 0.27 1.94 0.27 13.74 0 27.58 0 41.33 0 0.95 0 1.94 0 2.7-0.59h0.04v-0.09c0.18 0 0.32-0.04 0.32-0.22 0.36-0.18 0.67-0.36 1.08 0 1.12 0.9 2.47 0.99 3.86 0.99 1.39 0 2.83-0.18 4.18 0 0.99 0.13 1.62-0.94 2.47-0.63 0.99 0.31 1.93 0.54 2.92 0.54 3.19 0 6.47 0 9.66 0 1.17 0 2.34-0.09 3.28-0.99 0.32-0.22 0.54-0.4 0.95-0.09 1.7 1.48 3.72 1.08 5.7 1.03zm-16.22-3.64c0 0.72-0.31 1.04-1.03 0.99-0.5 0-0.95 0-1.44 0-0.49 0-0.81 0-1.21 0-1.98-0.13-3.55-1.75-3.46-3.5 0.04-1.75 1.66-3.28 3.46-3.42 1.84-0.04 3.5 1.44 3.68 3.28 0.09 0.86 0 1.8 0 2.65z"/>
	<path class="s0" d="m175.1 193.35c0.81-1.3 1.8-1.48 3.19-1.48q27.05 0 54.1 0c3.68 0 5.48-1.8 5.48-5.53v-11.59c0-1.53-0.09-3.06 0-4.54 0-0.99-0.36-1.26-1.26-1.12-0.27 0-0.58 0-0.85 0q-0.74-0.01-0.67 0.72 0 0.4 0 0.67c0 5.39 0 10.69 0 16.09 0 1.97-0.68 2.65-2.65 2.56-0.45 0-0.95 0.13-1.31-0.18-0.13-0.32 0-0.54 0.14-0.86 0.9-2.51 0.36-4.94-1.67-6.74-2.24-1.97-4.8-2.2-7.59-1.48-3.5 0.99-5.44 4.54-4.31 8.04 0.09 0.36 0.49 0.72 0.09 1.13h-3.55c-0.18-0.45 0.09-0.72 0.22-0.95 1.58-3.1 0.99-6.29-1.53-8.62-1.43-1.31-3.1-1.89-4.98-1.89q-10.65 0-21.3 0c-0.4 0-0.81 0.27-1.12-0.36 2.15-1.62 4.26-3.19 6.42-4.81 1.62-1.21 1.71-1.52 1.12-3.64-0.13 0-0.26 0-0.31 0.05q-5.75 4.09-11.5 8.18c-0.23 0.18-0.5 0.31-0.68 0.49-0.8 0.58-0.54 1.53-0.45 2.29 0.14 0.77 0.95 0.45 1.49 0.45 0.49 0 0.94 0 1.44 0h24.62c0.94 0 1.84 0 2.74 0.59 1.71 1.12 2.65 3.01 2.16 4.8-0.41 1.53-2.25 3.6-4.54 3.51-9.98-0.05-19.91 0-29.93 0-1.53 0-1.53 0-1.53-1.53q0-3.41 0-6.87c0-0.9-0.31-1.26-1.25-1.17q-0.27 0-0.54 0c-0.77-0.09-0.99 0.22-0.99 0.99 0 2.65 0 5.34 0 7.9 0.04 2.3-0.94 3.82-3.01 4.63-0.59 0.27-0.9 0.5-0.81 1.13 0 0.49 0 1.03 0 1.7 2.2-0.09 3.95-0.99 4.99-2.65zm47.54-10.78c1.39-0.45 2.83-0.5 4.26 0.22 1.49 0.77 2.34 2.29 2.07 3.73-0.22 1.3-1.53 2.47-3.14 2.65-0.41 0-0.9 0-1.4 0q-0.48 0-0.9 0c-1.75-0.13-3.19-1.26-3.46-2.65-0.22-1.62 0.81-3.41 2.57-3.95z"/>
	<path class="s0" d="m469.63 190.61c0.58-0.4 0.81-0.36 1.3 0.09 1.8 1.53 3.91 1.57 5.93 0.67 2.12-0.94 2.79-2.74 2.79-4.89 0-5.26 0-10.43 0-15.68 0-0.36 0-0.68 0-1.04 0-0.31-0.13-0.63-0.45-0.63-0.67-0.04-1.48-0.22-2.02 0.09-0.49 0.27-0.18 0.99-0.18 1.49q0 7.81 0 15.63c0 0.63 0.09 1.31-0.31 1.89-0.63 0.85-1.8 1.21-2.97 0.9-0.94-0.23-1.48-0.99-1.53-2.07q0-3.1 0-6.2c0-1.17 0-1.08-1.44-1.17-0.85 0-1.3 0.14-1.21 1.13 0 1.7 0 3.5-0.13 5.25-0.14 1.84-1.85 3.33-3.55 3.19-1.26 0-3.37-1.44-3.24-3.5q0-1.75 0-3.55c0-1.08-0.13-1.08-1.44-1.17-0.98-0.04-1.21 0.31-1.16 1.17 0 1.3 0.04 2.6-0.05 3.91-0.22 1.84-1.98 3.28-3.64 3.14-1.89-0.13-3.23-1.61-3.28-3.5 0-0.36 0-0.68 0-1.08 0-1.53-0.13-1.66-1.75-1.53-0.54 0-0.86 0.18-0.86 0.81 0 0.81 0 1.66 0 2.47-0.04 2.02-0.8 2.7-2.83 2.7-2.78 0-5.48 0-8.26 0-0.95 0-1.85 0-2.79-0.05-1.48-0.18-2.65-1.26-2.92-2.47-0.27-1.44 0.31-2.51 1.44-3.41 1.53-1.17 3.28-1.26 4.99-0.5 1.43 0.72 2.78 0.5 4.22 0.32-1.44-3.06-5.57-4.14-9.21-2.88q-2.03 0.74-3.19 2.56c-1.26 1.98-1.13 4.09-0.32 6.2-0.58 0.36-1.07 0.18-1.48 0.18-1.75 0-3.41 0-5.12 0-0.77 0-0.9-0.45-0.9-1.03 0-0.9 0-1.75 0-2.65-0.22-3.91-4.13-6.52-7.82-5.35-2.92 0.95-4.58 3.73-4.13 6.74 0.45 2.83 2.83 4.9 5.75 4.99 0.54 0 1.21-0.18 1.89 0.22-1.04 1.04-2.34 0.36-3.46 0.72 0 0.45 0 0.72 0 1.13 0 1.39 0.18 1.57 1.61 1.57 2.12-0.05 3.91-0.86 5.17-2.52 0.72-0.85 1.39-1.12 2.38-1.12q10.74 0 21.48 0c7.14 0 1.71 0 2.56-0.23 0.27 0 0.32-0.13 0.45-0.31 0.32 0 0.49-0.05 0.76-0.23 1.08-0.89 1.08-0.89 2.34-0.08 2.29 1.43 5.26 1.25 7.32-0.54 0.5-0.45 0.77-0.68 1.44-0.14 2.47 2.02 5.3 2.16 7.91 0.32zm-50.77-1.44c-0.36 0-0.68 0-1.04 0-1.84-0.05-3.19-1.48-3.28-3.19 0-1.66 1.44-3.33 3.1-3.46 1.53-0.14 3.19 1.17 3.51 2.78 0.09 0.41 0 0.9 0 1.4 0 2.78 0.31 2.47-2.34 2.47z"/>
	<path class="s0" d="m159.06 191.91c1.35 0 2.7-0.13 4.05 0 3.05 0.32 5.75-2.11 5.52-5.61-0.09-1.71 0-3.37 0-5.13 0-1.66 0-1.52-1.62-1.66-1.07 0-1.12 0.45-1.12 1.22 0 1.97 0 4.04 0 6.02 0 1.34-0.72 2.33-1.89 2.33-2.87 0.05-5.75 0-8.67 0-0.67 0-1.03-0.36-0.99-1.12 0-0.72 0-1.53-0.13-2.29-0.36-3.24-2.7-5.35-5.84-5.35-3.15 0-5.62 2.02-5.98 5.26-0.27 2.15 0.41 4.04 2.2 5.43 1.76 1.35 3.73 1.67 5.8 0.9 0.58-0.18 1.12-0.4 0.76-1.21-0.58-1.26-0.76-1.48-1.66-1.26-0.58 0.14-1.12 0.36-1.75 0.27-1.71-0.4-2.88-1.98-2.79-3.77 0.23-1.62 1.58-2.92 3.24-2.92 1.8 0 3.14 1.12 3.32 2.96 0.14 0.95 0 1.84 0 2.83 0 1.98 0.99 3.06 3.01 3.1q2.24 0 4.41 0z"/>
	<path class="s0" d="m376.49 188.77c0 2.16 0.9 3.1 3.1 3.14q2.23 0 4.4 0c1.57 0 3.15 0.09 4.72 0 2.56-0.13 4.54-1.97 4.63-4.44 0.09-2.3 0-4.54 0-6.83 0-1.08-0.09-0.99-1.53-1.08-0.85 0-1.12 0.27-1.12 1.12 0 1.93 0 3.91 0 5.8 0 2.06-0.68 2.74-2.79 2.74-1.98 0-4 0-5.98 0-3.37 0-2.78-0.09-2.78-2.65 0-2.79-1.48-4.9-4-5.84-2.34-0.86-4.85-0.09-6.65 1.93-1.75 1.97-1.8 5.16-0.18 7.37 1.57 2.15 4.72 3.05 7.1 1.97 0.49-0.27 0.99-0.4 0.67-1.12-0.49-1.17-0.9-1.57-1.66-1.35-0.63 0.18-1.26 0.36-1.89 0.23-1.75-0.45-2.83-1.94-2.56-3.82 0.18-1.44 1.57-2.74 3.15-2.83 1.66-0.09 3.19 1.08 3.37 2.87 0.13 0.95 0 1.84 0 2.79z"/>
	<path class="s0" d="m472.19 204.09c-1.08 0-1.3 0.54-1.57 1.3-0.99 2.56-1.98 5.13-3.01 7.64-1.3 3.33-2.65 6.61-3.96 9.93-0.13 0.32-0.35 0.68 0.05 0.95 0.9 0.49 2.38 0 2.74-0.99 0.54-1.35 1.12-2.74 1.62-4.09 0.22-0.72 0.67-0.99 1.39-0.95 1.8 0 3.64 0 5.44 0 0.67 0 1.12 0.23 1.35 0.9 0.49 1.31 1.12 2.56 1.57 3.87 0.27 0.99 0.76 1.57 1.89 1.3 0.36-0.04 0.8 0.13 1.34-0.22-2.47-6.25-4.85-12.36-7.28-18.56-0.31-0.77-0.67-1.21-1.57-1.21zm-2.74 11.27c0.94-2.24 1.8-4.36 2.79-6.87 0.99 2.43 1.84 4.63 2.78 6.87-1.93 0.23-3.64 0.23-5.57 0z"/>
	<path class="s0" d="m151.96 213.17c-1.12-0.5-2.38-0.81-3.46-1.17-0.9-0.32-1.75-0.72-2.42-1.39-1.17-1.22-0.81-3.06 0.67-3.82 0.67-0.32 1.3-0.41 2.07-0.41 1.75-0.09 3.32 0.54 4.85 1.35 0.85 0.4 0.94 0.36 1.62-0.85 0.36-0.72 0.31-1.08-0.36-1.44-1.8-0.99-3.64-1.53-5.53-1.53-2.02 0-2.87 0.09-3.95 0.67-3.06 1.53-3.73 5.31-1.35 7.82 1.08 1.13 2.34 1.67 3.77 2.16 1.22 0.4 2.47 0.76 3.6 1.39 1.08 0.68 1.84 1.57 1.71 3.01-0.14 1.4-1.13 2.16-2.34 2.52-0.85 0.31-1.84 0.36-2.79 0.27-1.43-0.18-2.69-0.63-3.95-1.3-0.85-0.5-0.99-0.36-1.8 0.89-0.4 0.77-0.09 1.08 0.45 1.4q4.25 2.37 9.03 1.17c2.07-0.5 3.42-1.94 3.87-4.09 0.63-2.83-0.81-5.31-3.69-6.61z"/>
	<path class="s0" d="m453.86 210.56c-0.63-0.18-1.3-0.18-1.89 0-0.4 0.18-0.22 0.72-0.27 1.12 0 2.7 0 5.35 0 8.09 0 1.57 0 1.57-1.7 1.84-0.27 0-0.54 0.14-0.86 0.14-2.29 0.09-3.37-0.95-3.46-3.24 0-0.63 0-1.3 0-1.88 0-1.76 0-3.55 0-5.26 0-0.85-0.49-0.85-1.17-0.85-0.63 0-1.34-0.18-1.34 0.85 0 2.78-0.14 5.48 0 8.27 0.13 2.2 0.94 4.27 4.35 4.49 0.95 0.09 1.89 0.09 2.79-0.05 0.4 0 0.81-0.26 1.12 0.18-0.49 1.71-1.3 2.3-2.96 2.34-1.84 0-3.51-0.63-5.44-1.8 0.14 0.9 0.32 1.4 0.32 1.94 0 1.12 0.53 1.61 1.48 1.84 1.35 0.36 2.78 0.63 4.13 0.49 3.42-0.22 5.08-2.02 5.12-5.43q0-3.15 0-6.29c0-1.89 0-3.87 0-5.8 0-0.32 0.05-0.81-0.31-0.94z"/>
	<path class="s0" d="m362.42 204.22c-0.49-0.13-1.03-0.13-1.52-0.13q-2.7 0-5.26 0c-1.48 0-1.48 0-1.48 1.39v8.5c0 2.96 0 5.97 0 8.94 0 1.03 0 0.99 1.3 1.03 0.81 0 1.17-0.04 1.17-1.03 0-1.98 0-4.05 0-5.98 0-0.76 0.31-1.08 1.03-0.99 1.39 0 2.74 0.05 4.04 0 3.15-0.22 5.62-2.47 5.8-5.34 0.23-3.51-1.57-5.8-5.08-6.39zm0.36 8.95c-1.17 0.49-2.38 0.36-3.5 0.36q-2.7 0-2.7-2.61 0-1.66 0-3.33c0-0.71 0.18-1.16 1.08-1.12 1.57 0.14 3.15-0.09 4.72 0.32 1.53 0.36 2.47 1.48 2.56 2.96q0.2 2.48-2.16 3.42z"/>
	<path class="s0" d="m574.14 211.68c0-1.12-0.04-1.16-1.21-1.16-1.21 0-1.26 0-1.26 1.07q0 3.64 0 7.24c0 2.42-0.31 3.01-3.14 2.92q-0.18 0-0.36 0c-1.44-0.18-2.12-0.81-2.34-2.25q-0.22-1.39-0.22-2.78c0-1.71 0-3.51 0-5.31 0-0.98-0.59-0.89-1.26-0.89-0.72 0-1.26 0-1.26 0.98q0 3.6 0 7.19c0 0.68 0.13 1.44 0.31 2.11 0.45 1.98 1.62 2.97 3.6 3.28q1.57 0.27 3.14 0c0.41 0 0.99-0.35 1.22 0.18 0.27 0.54-0.18 0.99-0.54 1.44-0.59 0.59-1.26 0.86-2.02 0.9-1.26 0.09-2.48-0.04-3.6-0.63-0.63-0.27-1.26-0.58-1.98-0.9-0.18 0.72 0.18 1.22 0.14 1.71-0.14 1.17 0.58 1.57 1.48 1.89q1.75 0.54 3.64 0.54c3.73-0.05 5.53-1.93 5.62-5.71q0-5.85 0-11.77z"/>
	<path class="s0" d="m256.2 210.61c-2.96-1.04-6.24 0-7.95 2.47-1.8 2.6-1.48 6.56 0.41 8.85 2.65 3.14 7.72 2.56 10.37 0.99 0.45-0.27 0.54-0.59 0.32-0.99-0.14-0.18-0.32-0.36-0.36-0.63-0.31-0.81-0.76-1.12-1.57-0.5-0.99 0.68-2.16 0.86-3.33 0.95-1.97 0-3.46-1.08-4.09-2.74-0.22-0.72 0-0.99 0.72-0.99 1.4 0 2.83 0 4.18 0q2.24 0 4.4 0c0.59 0 0.99-0.14 1.04-0.85 0.18-2.79-1.53-5.67-4.09-6.61zm0.31 4.94q-1.39 0-2.78 0c-0.9 0-1.98 0-2.97 0-0.58 0-0.67-0.31-0.4-0.81 0.81-1.3 1.84-2.02 3.37-2.11 1.48 0 2.56 0.77 3.32 1.93 0.45 0.63 0.27 0.95-0.49 0.99z"/>
	<path class="s0" d="m279.84 210.25c-3.28 0.13-5.93 2.47-6.43 5.93-0.54 3.5 1.49 6.92 4.63 7.77 2.47 0.67 4.9 0.36 7.19-0.85 0.9-0.5 0.54-0.99 0.18-1.53-0.31-0.59-0.45-1.44-1.48-0.77-1.4 0.86-2.92 1.17-4.59 0.86-1.79-0.32-2.92-1.57-3.1-3.46 0.45-0.23 0.95-0.09 1.4-0.09 2.65 0 5.21 0 7.86 0 0.76 0 1.08-0.23 1.08-0.99 0-3.64-2.34-7.05-6.79-6.87zm3.64 5.3h-6.29c-0.72 0-0.9-0.32-0.49-0.86 0.85-1.3 1.98-2.11 3.64-1.97 1.53 0.13 2.56 0.99 3.19 2.33 0 0.14 0 0.32-0.05 0.59z"/>
	<path class="s0" d="m415.76 211.05c-2.34-1.34-4.77-1.21-6.97 0.18-2.33 1.49-3.14 3.78-3.05 6.47 0.13 2.75 1.97 5.4 4.54 6.12 2.47 0.67 4.85 0.44 7.14-0.77 0.85-0.49 0.85-0.58 0.27-1.71-0.4-0.58-0.58-1.21-1.57-0.58-1.31 0.85-2.83 1.08-4.36 0.85-1.57-0.31-2.65-1.25-3.15-2.74-0.18-0.54 0-0.85 0.59-0.85q2.23 0 4.4 0c1.48 0 2.97 0 4.36 0 1.44 0 0.99 0 0.94-0.67-0.13-2.61-0.81-4.95-3.19-6.3zm0.05 4.27c-0.23 0.5-0.86 0.23-1.31 0.23q-2.68 0-5.43 0c-0.09 0-0.18-0.09-0.41-0.18 0.86-2.7 4.18-3.33 5.84-1.98 0.27 0.18 0.5 0.36 0.63 0.59 0.23 0.4 0.86 0.76 0.54 1.34z"/>
	<path class="s0" d="m514.7 210.25q-1.49 0-2.97 0c-0.72 0-1.03-0.18-1.03-0.99q0-2.04 0-4c0-1.17-0.09-1.26-1.35-1.26-1.21 0-1.21 0-1.21 1.17q0 8.81 0 17.61c0 1.13 0 1.13 1.26 1.17 1.21 0 1.3 0 1.3-1.21 0-1.44 0-2.88 0-4.23 0-1.52 0-3.01 0-4.53 0-0.5 0.04-0.95 0.67-1.08 1.22-0.23 2.47-0.36 3.64 0 0.86 0.27 1.53 0.81 1.71 1.79 0.22 0.86 0.31 1.76 0.31 2.61 0 1.84 0 3.77 0 5.62 0 0.9 0.41 1.07 1.13 1.03 1.26 0 1.35 0 1.35-0.99 0-2.51 0-5.08 0-7.5 0-0.45 0-0.81-0.09-1.26-0.5-2.52-2.07-3.86-4.68-3.95z"/>
	<path class="s0" d="m338.92 213.84c-0.4-1.98-1.88-3.41-3.82-3.5-1.3-0.14-2.56-0.14-3.86 0.22-2.38 0.67-2.56 0.85-2.52 3.33 0 0 0 0.13 0.14 0.26 0.63 0 0.9-0.44 1.35-0.58 1.21-0.49 2.51-0.99 3.91-0.85 0.89 0.04 1.7 0.45 2.15 1.3 0.18 0.31 0.36 0.63 0.09 0.99-0.22 0.36-0.58 0.31-0.9 0.22-1.43-0.27-2.78 0-4.13 0.41-1.48 0.31-2.74 1.03-3.23 2.65-0.86 2.65 0.31 4.99 3.1 5.66 2.33 0.63 4.76 0.36 7.09-0.36 0.72-0.27 0.95-0.76 0.95-1.48q0-3.15 0-6.29c0-0.63-0.14-1.31-0.27-1.93zm-3.28 7.72c-1.21 0.18-2.47 0.36-3.64 0-0.81-0.27-1.48-0.76-1.53-1.66q-0.13-1.27 1.48-1.93c0.81-0.32 1.62-0.23 2.34-0.23 2.65 0.09 2.43-0.27 2.47 2.57 0 0.8-0.31 1.21-1.03 1.3z"/>
	<path class="s0" d="m168.72 213.21c-0.36-1.21-1.17-2.16-2.47-2.6-2.34-0.72-4.63-0.41-6.83 0.49-0.36 0.13-0.67 0.4-0.63 0.76 0.05 0.68-0.31 1.35-0.04 2.16 0.58 0.13 0.85-0.31 1.21-0.45 1.3-0.49 2.61-1.03 4.09-0.9 0.99 0.09 1.84 0.41 2.2 1.48 0.32 0.72 0 1.17-0.81 1.04-1.44-0.23-2.87 0-4.31 0.36-2.2 0.49-3.37 2.06-3.37 4.09 0 2.2 1.17 3.77 3.37 4.27 2.38 0.49 4.63 0.35 6.92-0.41 0.67-0.22 1.08-0.58 0.99-1.39q0-3.42 0-6.88c0-0.67-0.18-1.39-0.36-2.06zm-3.33 8.4c-1.17 0.18-2.33 0.22-3.46-0.09-0.85-0.23-1.48-0.72-1.57-1.66-0.05-0.81 0.58-1.53 1.48-1.94 0.81-0.27 1.62-0.18 2.38-0.27 2.39 0 2.39 0 2.39 2.48 0 0.89-0.32 1.34-1.22 1.52z"/>
	<path class="s0" d="m528.27 210.25c-3.69-0.32-6.92 3.1-6.92 6.87 0 4 2.96 7.1 6.74 7.01 3.82 0 6.87-3.15 6.87-6.96 0-3.91-2.96-6.92-6.69-6.92zm0 11.5c-2.65 0-4.23-2.43-4.18-4.45 0.13-2.61 1.71-4.58 4.09-4.58 2.33 0 4.18 1.93 4.22 4.45 0 2.47-1.84 4.58-4.13 4.58z"/>
	<path class="s0" d="m383.54 210.25c-4.27-0.18-7.37 3.59-7.1 6.87-0.31 3.55 2.52 7.1 6.56 7.14 3.73 0 6.65-2.92 6.88-6.74 0.22-3.77-3.06-7.09-6.34-7.27zm-0.36 11.5c-2.29 0-4.22-2.07-4.22-4.54 0-2.52 1.8-4.49 4.13-4.54 2.34 0 4.23 1.89 4.27 4.45 0 2.38-1.98 4.63-4.13 4.63z"/>
	<path class="s0" d="m399.85 210.74c-2.47-0.81-5.03-0.67-7.5 0.31-0.54 0.5-0.32 1.13-0.32 1.67q0 7.34 0 14.56c0 4.8 0 0.62 0 0.89 0 1.04 0.77 0.77 1.4 0.86 0.67 0 1.16 0 1.07-0.86q0-1.61 0-3.19c0-1.03 0.27-0.85 0.9-0.72 0.9 0.14 1.85 0.18 2.74-0.13 4.05-0.36 6.43-3.55 6.03-7.91-0.32-2.69-1.8-4.54-4.32-5.35zm-0.9 10.61c-1.08 0.45-2.24 0.49-3.46 0.31-0.72-0.13-1.03-0.45-0.99-1.12q0-1.66 0-3.32 0-1.67 0-3.33c0-0.67 0.32-0.99 0.95-1.03 1.03-0.14 2.11-0.23 3.14 0.09 1.85 0.49 2.92 1.79 2.97 3.64 0.13 2.74-0.63 4.04-2.61 4.85z"/>
	<path class="s0" d="m233.24 214.2c-0.49-2.52-2.02-3.82-4.62-3.95-1.8-0.05-3.51 0.13-5.26 0.36-0.85 0.13-1.21 0.4-1.17 1.3q0 3.14 0 6.29v5.62c0.36 0 0.63 0.13 0.81 0.13 1.66 0 1.66 0 1.66-1.62q0-3.41 0-6.83c0-2.29 0-2.83 2.88-2.83 2.11 0 2.96 0.81 3.23 2.88 0.32 2.47 0.14 4.94 0.14 7.37 0 0.81 0.31 0.99 0.99 1.03 1.39 0 1.52 0 1.52-1.53 0-0.49 0-0.94 0-1.44-0.04-2.29 0.23-4.53-0.27-6.83z"/>
	<path class="s0" d="m493.35 217.03c0-1.71 0-3.5 0-5.3 0-1.17-0.13-1.21-1.34-1.21-1.13 0-1.13 0-1.13 1.21q0 3.59 0 7.23c0 2.38-0.13 2.79-2.74 2.83-2.15 0-3.14-0.85-3.19-3.01q0-3.15 0-6.38c0-2.15 0-0.81 0-1.21-0.13-0.94-0.81-0.63-1.35-0.63-0.58 0-1.12-0.04-1.07 0.72 0 2.96 0 6.02 0.09 8.99 0.04 2.2 1.39 3.5 3.64 3.81 2.15 0.32 4.17 0 6.29-0.49 0.67-0.18 0.94-0.63 0.94-1.3 0-1.71 0-3.51 0-5.3z"/>
	<path class="s0" d="m183.19 217.12c0-1.89 0-3.64 0-5.44 0-1.12-0.09-1.12-1.3-1.12-1.17 0-1.26 0-1.26 1.12q0 3.78 0 7.6c0 2.51-0.09 2.51-2.56 2.51q-0.41 0-0.68 0c-1.57-0.18-2.38-0.85-2.56-2.42-0.04-0.59-0.04-1.26-0.04-1.89 0-1.84 0-3.77 0-5.62 0-1.25 0-1.25-1.13-1.25-1.21 0-1.34 0-1.34 1.16q0 3.64 0 7.24c0 0.63 0.04 1.3 0.22 1.93 0.5 1.98 1.71 2.97 3.69 3.28 2.06 0.27 4.04 0 6.11-0.49 0.67-0.23 0.89-0.59 0.89-1.26 0-1.8 0-3.51 0-5.3z"/>
	<path class="s0" d="m325.13 217.03c0-1.71 0-3.5 0-5.26 0-1.21-0.05-1.21-1.08-1.21-1.26 0-1.39 0-1.39 1.17q0 3.5 0 7.05c0 2.34-0.36 3.28-3.24 3.01-1.57-0.13-2.38-0.85-2.56-2.42-0.04-0.5 0-1.04 0-1.58 0-2.06 0-4.08 0-6.2 0-1.07-0.04-1.07-1.21-1.07-1.17 0-1.26 0-1.26 1.07 0 2.61 0 5.13 0 7.73 0 0.5 0.09 0.95 0.18 1.35 0.45 1.98 1.62 3.06 3.6 3.32 2.02 0.32 4.08 0 6.11-0.4 0.85-0.18 1.03-0.67 1.03-1.48 0-1.75 0-3.42 0-5.08z"/>
	<path class="s0" d="m559.58 221.57c-0.49 0-1.07 0-1.61 0-1.71 0-2.38-0.72-2.47-2.47 0-0.81 0-1.71 0-2.47 0-0.77 0-1.58 0-2.3 0-1.3 0-1.3 1.34-1.34q1.4 0 2.79 0c0.99 0 0.99-0.63 0.94-1.31 0-0.63 0.14-1.34-0.94-1.3q-1.39 0-2.79 0c-1.34 0-1.34 0-1.39-1.35 0-0.76 0-1.57 0-2.29 0.05-0.99-0.49-0.99-1.26-0.94-0.58 0-1.35-0.14-1.3 0.94q0 1.39 0 2.79 0 0.99-0.9 0.9-0.4 0-0.67 0c-0.86-0.09-1.13 0.27-1.13 1.12 0 1.3 0 1.35 1.35 1.44 1.35 0 1.35 0 1.35 1.48 0 1.71 0 3.5 0 5.21 0 2.25 1.26 3.6 3.41 4.14 1.31 0.31 2.61 0.13 3.82 0.13 0.27 0 0.5-0.13 0.59-0.36 0-0.54 0.09-1.17 0-1.75-0.14-0.59-0.77-0.36-1.22-0.36z"/>
	<path class="s0" d="m310.71 221.57c-0.5 0-0.95 0-1.44 0-2.02 0-2.7-0.63-2.79-2.74 0-1.62 0-3.15 0-4.76 0-0.86 0.32-1.08 1.13-1.08q1.48 0 2.96 0c0.99 0 1.04-0.14 1.04-1.4 0-1.21-0.05-1.21-1.04-1.16-0.99 0.09-1.98 0-2.96 0-0.81 0-1.17-0.23-1.17-1.08 0-0.9 0-1.76 0-2.7 0-0.9-0.5-0.9-1.13-0.85-0.53 0-1.34-0.32-1.34 0.81q0 1.14 0 2.29c0 1.44 0 1.48-1.4 1.48-0.94 0-1.25 0.32-1.21 1.21 0 1.26 0 1.26 1.26 1.31q1.3 0.09 1.3 1.34c0 0.81 0 1.71 0 2.48 0 1.07-0.09 2.11 0 3.14 0.18 2.38 1.71 3.87 4.14 4.05 0.8 0 1.66 0 2.47 0 1.21 0 1.17 0 1.21-1.31 0.09-0.99-0.31-1.26-1.17-1.17z"/>
	<path class="s0" d="m504.32 221.57c-0.5 0-0.9 0-1.39 0-1.85 0-2.34-0.5-2.57-2.38-0.04-0.9 0-1.84 0-2.74 0-0.77 0-1.58 0-2.3-0.04-0.89 0.32-1.12 1.13-1.12q1.57 0 3.14 0c0.99 0 0.95-0.67 0.95-1.3 0-0.72 0-1.3-0.99-1.21-1.08 0.04-2.11 0-3.15 0-0.76 0-1.12-0.32-1.08-1.08 0-0.86 0-1.71 0-2.65 0-0.9 0-0.81-0.4-0.86-0.63-0.13-1.3-0.27-1.84 0.14-0.5 0.31-0.23 0.85-0.27 1.3q0 0.89 0 1.71c0 1.3 0 1.35-1.35 1.35-0.94 0-1.26 0.31-1.17 1.25 0 1.17 0 1.22 1.08 1.31q0.22 0 0.4 0c0.86-0.14 1.17 0.18 1.08 1.03 0 1.48 0 2.97 0 4.36 0 0.72 0 1.44 0.23 2.11 0.4 1.98 1.71 3.24 3.73 3.42 1.08 0.08 2.11 0 3.14 0 0.32 0 0.63 0 0.77-0.41 0.13-0.54 0.18-1.17 0-1.71-0.27-0.63-0.81-0.31-1.26-0.36z"/>
	<path class="s0" d="m439.26 221.57c-0.5 0-0.9 0-1.4 0-1.48 0-2.15-0.63-2.29-2.11-0.04-0.95 0-1.85 0-2.83q0-1.41 0-2.88c0-0.58 0.23-0.85 0.86-0.76q1.48 0 2.96 0c1.26 0 1.3-0.14 1.26-1.31 0-1.16 0-1.16-1.17-1.16-0.76 0-1.57 0-2.29 0q-1.62 0-1.62-1.67c0-0.58 0-1.08 0-1.61 0-1.31 0-1.31-1.17-1.31-1.16 0-1.25 0-1.3 1.22 0 0.8 0 1.7 0 2.47 0 0.58-0.31 0.9-0.85 0.9-0.36 0-0.68 0-1.08 0-0.36 0-0.54 0-0.67 0.35-0.41 1.13 0.13 2.03 1.25 2.12 1.31 0.04 1.35 0.04 1.35 1.39 0 1.84 0 3.77 0 5.62 0.14 2.24 1.3 3.46 3.42 3.91 1.21 0.22 2.47 0 3.68 0.08 0.45 0 0.63-0.22 0.63-0.67 0.22-1.48 0-1.75-1.62-1.75z"/>
	<path class="s0" d="m244.21 221.57q-0.88 0-1.75 0c-1.49 0-2.12-0.72-2.25-2.2 0-0.86 0-1.71 0-2.65 0-0.9 0-1.4 0-2.07 0-1.98 0-1.62 1.53-1.62h2.11q1.48 0 1.48-1.26c0-1.21 0-1.25-1.44-1.21q-1.29 0-2.65 0c-0.76 0-1.17-0.18-1.08-1.03 0.05-0.9 0-1.76 0-2.65 0-0.41 0-0.81-0.45-0.9-0.62-0.09-1.3-0.18-1.84 0.13-0.36 0.18-0.18 0.77-0.18 1.17 0 0.49 0 1.08 0 1.62 0 1.62 0 1.66-1.62 1.66-0.85 0-1.12 0.31-1.12 1.12 0 1.22 0 1.31 1.39 1.35 1.26 0.05 1.26 0.05 1.26 1.44 0 1.75 0 3.64 0 5.39 0.09 2.29 1.58 3.91 3.78 4.09 1.08 0.13 2.11 0 3.14 0 1.08 0 0.68 0 0.77-0.36 0.04-0.54 0.09-1.17 0-1.75-0.18-0.59-0.81-0.36-1.26-0.36z"/>
	<path class="s0" d="m396.48 191.91c1.8 0 3.64 0 5.44 0 1.8 0 3.05 0 4.58 0 1.84-0.13 2.97-1.16 3.28-3.01 0.32-1.93-0.36-3.41-2.16-4.4-3.05-1.66-6.06-3.28-9.25-4.99q-0.45 2.7 1.53 3.78 3.23 1.74 6.47 3.55c0.63 0.31 0.99 0.81 0.85 1.57-0.18 0.85-0.76 0.85-1.48 0.85h-1.22q-4.04 0-8.08 0c-0.68 0-0.99 0.14-0.95 0.86q0 0.48 0 0.89c-0.09 0.77 0.27 0.99 0.99 0.99z"/>
	<path class="s0" d="m297.95 221.07c-0.9 0.59-1.98 0.72-3.06 0.72-2.29-0.13-3.82-1.7-4-4.09-0.18-2.33 1.12-4.31 3.19-4.8 1.26-0.32 2.47-0.05 3.6 0.45 1.34 0.63 1.34 0.63 2.02-0.68 0.31-0.67 0.18-1.08-0.5-1.39-1.21-0.58-2.47-0.94-3.86-0.85-0.58 0-1.08 0-1.62 0-0.31 0-0.54 0.13-0.85 0.27-3.64 1.07-5.62 5.16-4.22 9.25 1.48 4.18 5.7 5.3 9.97 3.69 1.48-0.54 1.48-0.72 0.72-2.16-0.41-0.81-0.72-0.81-1.48-0.36z"/>
	<path class="s0" d="m571.22 191.69c0.72 0.36 1.48 0.22 2.25 0.09 0.63-0.09 0.36-0.77 0.36-1.21q0-9.57 0-19.15c0-6.33 0-1.03 0-1.61 0-0.23 0-0.59-0.18-0.59-0.72-0.27-1.53-0.27-2.2 0-0.63 0.09-0.41 0.77-0.41 1.22q0 4.98 0 10.02c0 3.32 0 6.78 0 10.15 0 0.4-0.18 0.94 0.18 1.12z"/>
	<path class="s0" d="m242.72 191.78c0.63 0.22 1.31 0.27 1.94 0 0.63-0.18 0.31-0.77 0.31-1.21q0-5.08 0-10.2v-1.22c0-2.96 0-5.97 0-8.94 0-0.81-0.18-1.12-1.08-1.12-1.43 0-1.43 0-1.43 1.62v18.24c0 0.67 0 1.44 0 2.11 0 0.31 0 0.63 0.26 0.72z"/>
	<path class="s0" d="m484.19 180.55q0 5.12 0 10.2c0 0.67 0.13 1.12 0.94 1.12 1.53 0.13 1.66 0 1.66-1.57 0-5.67 0-11.33 0-17.08v-3.32c0-0.32 0-0.68-0.31-0.77-0.58-0.18-1.3-0.18-1.89 0-0.67 0.27-0.4 0.95-0.4 1.35q0 5.03 0 10.02z"/>
	<path class="s0" d="m343.73 204.09c-1.26 0-1.26 0-1.26 1.3 0 2.83 0 5.62 0 8.45 0 2.97 0 5.98 0 8.94 0 1.17 0 1.17 1.17 1.21 1.3 0 1.44 0 1.44-1.07q0-8.81 0-17.62c0-1.16-0.05-1.21-1.35-1.21z"/>
	<path class="s0" d="m264.79 204.27c-0.59-0.31-1.26-0.27-1.85-0.05-0.63 0.18-0.4 0.72-0.4 1.17q0 8.68 0 17.39c0 5.8 0.09 1.21 1.39 1.21 1.17 0 1.17 0 1.17-1.16 0-2.88 0-5.71 0-8.63 0-2.97 0-5.84 0-8.76 0-0.36 0.18-0.95-0.18-1.17z"/>
	<path class="s0" d="m269.91 204.09c-1.17 0-1.17 0-1.26 1.08q0 4.44 0 8.81c0 2.87 0 5.84 0 8.76 0 1.17 0 1.17 1.17 1.17 1.26 0 1.3 0 1.3-1.08q0-8.85 0-17.75c0-1.08-0.04-1.12-1.3-1.12z"/>
	<path class="s0" d="m427.66 210.52c-1.84 0-3.77-0.09-5.61 0.4-0.72 0.18-1.04 0.58-1.04 1.35 0 1.75 0 3.41 0 5.12v5.66c0 0.36-0.09 0.72 0.32 0.9 0.58 0.18 1.26 0.27 1.89 0 0.63-0.18 0.36-0.81 0.36-1.21q0-4.17 0-8.27c0-1.26 0-1.3 1.25-1.39 0.86 0 1.71 0 2.65 0 0.86 0 0.86-0.59 0.81-1.22 0-0.58 0.18-1.3-0.76-1.3z"/>
	<path class="s0" d="m375.5 210.52c-1.84 0-3.73-0.14-5.53 0.4-0.67 0.18-0.94 0.49-0.94 1.26 0 1.71 0 3.5 0 5.21v5.66c0 0.36 0 0.68 0.36 0.86 1.26 0.49 2.15-0.09 2.15-1.44 0-2.79 0-5.48 0-8.27 0-0.94 0.41-1.21 1.26-1.21 0.63 0 1.31 0 1.89 0 1.71 0.09 1.48-0.41 1.48-1.8 0-0.4-0.18-0.76-0.58-0.67z"/>
	<path class="s0" d="m543.63 210.52c-1.84 0-3.73-0.14-5.52 0.4-0.68 0.18-0.95 0.58-0.95 1.26 0 1.71 0 3.5 0 5.21 0 1.8 0 3.68 0 5.44 0 1.08 0.09 1.12 1.31 1.12 1.21 0 1.21 0 1.21-1.12q0-4.1 0-8.27c0-2.79 0-1.53 1.57-1.57 0.72 0 1.53 0 2.29 0 0.72 0 0.81-0.59 0.72-1.13 0-0.58 0.27-1.34-0.63-1.34z"/>
	<path class="s0" d="m197.21 204.22c-0.5 0-1.08-0.08-1.57-0.08q-0.54 0-0.41 0.53c-0.27 1.89 0.09 3.78-0.22 5.71 0.31 0 0.58-0.13 0.9-0.18-0.27 0.05-0.59 0.14-0.9 0.18-1.94-0.04-3.91-0.31-5.71 0.67h-0.09c-0.22 0-0.4 0.18-0.54 0.36h-0.13c-0.81 0.45-1.35 0.99-1.8 1.76-0.18 0-0.23 0.09-0.23 0.31 0 0.09-0.13 0.23-0.17 0.36q-1.97 3.51 0.04 7.01c0 0.31 0.18 0.45 0.36 0.58 0.27 0.54 0.63 0.9 1.12 1.17 0.14 0.23 0.32 0.36 0.63 0.36 0.14 0.18 0.32 0.32 0.5 0.32 0.13 0.13 0.31 0.31 0.54 0.22 0.13 0 0.31 0.09 0.44 0.14 1.89 0.8 3.87 0.58 5.85 0.18 0.45 0 0.8-0.09 1.16-0.32h0.23l0.09-0.09c0.31-0.13 0.4-0.36 0.4-0.67q0-8.99 0-17.98c0-0.31 0-0.54-0.45-0.67zm-5.66 18.69c0 0.05-0.09 0.18-0.13 0.32 0-0.14 0.13-0.27 0.13-0.32zm-1.62-1.66c-0.49-0.49-0.94-0.99-1.43-1.48-0.05-0.27-0.23-0.54-0.23-0.81-0.45-2.97-0.27-5.3 3.82-6.29 0.68 0 1.35 0 2.11 0.13 0.68 0 1.04 0.32 1.04 1.08 0 2.29 0 4.54 0 6.83 0 0.58-0.32 0.85-0.95 0.99-1.08 0.22-2.2 0-3.23 0h-0.14c0-0.09-0.18-0.09-0.18-0.09-0.18-0.23-0.45-0.32-0.76-0.32zm0.49 0.32q-0.09 0-0.18 0 0.09 0 0.18 0z"/>
	<path class="s0" d="m203.72 217.21c0-1.89 0-3.86 0-5.8 0-0.98-0.54-0.89-1.21-0.89-0.76 0-1.26 0-1.26 0.98 0 3.87 0 7.69 0 11.6 0 1.03 0.63 0.85 1.31 0.89 0.76 0 1.25 0 1.25-0.94 0-1.93 0-3.91 0-5.84z"/>
	<path class="s0" d="m218.06 214.15q0-4.58 0-9.16c0-1.03-0.63-0.9-1.31-0.9-0.63 0-1.3-0.18-1.3 0.85 0 6.07 0 12.05 0 18.11 0 0.27 0 0.68 0.27 0.77 0.58 0.26 1.3 0.17 1.89 0 0.63-0.09 0.45-0.72 0.45-1.17q0-4.26 0-8.58z"/>
	<path class="s0" d="m548.4 217.48c0-1.93 0-3.91 0-5.8 0-1.16 0-1.16-1.17-1.16-0.81 0-1.35 0-1.3 1.03 0 3.82 0 7.59 0 11.41 0 0.99 0.13 0.99 1.34 1.03 0.81 0 1.22-0.17 1.13-1.03 0-1.8 0-3.64 0-5.44z"/>
	<path class="s0" d="m517.93 178.3c0.59 0 1.04 0 1.53 0 0.54 0 1.03 0 1.12-0.81 0-0.76-0.31-0.99-1.07-1.08-1.17-0.04-1.71-0.58-1.58-1.39 0.18-0.99 0.99-0.9 1.67-0.81 0.76 0.14 0.85-0.36 0.85-0.94 0-0.54 0-0.99-0.81-1.04-2.52-0.18-3.91 1.04-3.82 3.64 0 0.72-0.63 1.62 0 2.16 0.63 0.49 1.48 0.04 2.11 0.18z"/>
	<path class="s0" d="m564.93 190.3c0.45 0 0.5-0.36 0.59-0.72 0-0.14 0.04-0.27 0.09-0.32 0.09-0.13 0.22-0.22 0.27-0.36 0.53-0.18 0.44-0.63 0.35-1.08 0.18-0.22 0.18-0.4 0-0.67q0-3.23 0-6.47c0-3.68 0-7.46-0.04-11.19-0.36-0.76-1.12-0.27-1.66-0.36-0.9-0.13-0.95 0.45-0.68 1.08-0.13 5.71-0.09 11.5 0 17.26-0.49 0.76-0.81 1.66-1.88 1.75-2.21 0-4.36 0-6.65 0 0-0.41 0-0.59 0.04-0.77 1.75-4.62-1.03-8.76-6.02-8.8q-3.32 0-6.69 0c-1.35 0-1.4 0-1.35 1.35 0.09 0.94-0.14 1.66-0.86 2.33-0.85 0.81-1.16 1.98-1.16 3.24 0 1.21 0 1.16 0 1.7 0 0.68-0.27 0.95-0.95 0.95-1.39 0-2.83 0-4.18 0-1.75 0-2.47-0.77-2.47-2.47 0-1.98 0-4.05 0-6.02 0-1.17 0-1.17-1.35-1.08-1.39 0-1.39 0-1.39 1.17 0 2.02 0 4.13 0 6.15 0 1.44-0.72 2.25-2.16 2.29-1.66 0-3.23 0-4.94 0-1.26 0-1.89-0.63-2.15-1.84-0.09-0.49-0.09-1.08-0.09-1.53 0-1.75 0-3.41 0-5.16 0-1.04-0.59-1.04-1.4-1.08-0.76-0.09-1.35 0-1.26 1.03 0.05 1.93 0 3.91 0 5.8 0 2.06-0.76 2.74-2.78 2.78q-4.17 0-8.27 0c-0.63 0-1.17 0-1.66-0.36 0-0.76 0-1.57 0-2.29 0-0.67 0.22-1.44-0.41-1.98-0.22-0.22 0-0.67-0.31-0.94-0.58-0.76-1.03-1.66-2.07-1.98-0.36-0.71-1.12-1.03-1.84-1.16-2.29-0.36-4.36 0.18-5.89 2.06-1.52 1.84-1.93 4-0.98 6.2 1.25 2.97 4.89 4.45 7.77 3.19 0.36-0.22 0.94-0.27 0.76-0.81-0.18-0.62-0.58-1.16-0.94-1.66-0.45-0.49-0.85 0-1.3 0.09-1.53 0.32-3.1-0.4-3.78-1.84-0.67-1.35-0.04-3.28 1.26-4.18 1.21-0.9 2.88-0.67 4 0.41 0.81 0.76 0.99 1.66 0.99 2.74 0 1.34-0.23 2.69 0.54 3.86 0.27 0.67 0.72 1.08 1.39 1.12 0.31 0.27 0.58 0.27 0.99 0.27 3.37 0 6.83 0 10.24 0 0.41 0 0.81 0 1.17-0.27 0.72 0 1.03-0.8 1.71-0.85 0.4-0.18 0.76-0.31 1.12 0 0.5 0.49 1.04 0.85 1.71 0.85 0.76 0.45 1.62 0.32 2.43 0.32 1.79-0.14 3.59 0.36 5.39-0.27 0.22-0.09 0.49-0.27 0.67-0.41 0.36 0.18 0.54 0 0.68-0.31 0.35-0.18 0.67-0.36 1.12-0.13 0.49 0.49 1.03 0.85 1.71 0.85 0.49 0.4 1.12 0.31 1.7 0.31 5.08 0 10.07 0 15.15 0 0.62 0 1.3 0.09 1.84-0.31 0.94-0.54 1.84-0.27 2.78 0 0.45 0.31 0.86 0.31 1.35 0.31 1.98 0 4.05 0 6.02 0 0.5 0 1.04 0 1.53-0.22 0.67-0.5 1.66-0.59 2.11-1.44zm-11.68-5.84c0.67 1.57 0.13 3.01-1.93 4.31 0.67-2.47 0.58-4.58-1.49-6.24 1.4-0.32 2.88 0.54 3.42 1.93zm-11.5 2.16c0-1.76 1.61-3.33 3.28-3.55 1.75-0.18 3.77 1.12 4.27 2.69 0.49 1.53-0.68 3.19-2.34 3.37-0.77 0.05-1.57 0-2.29 0q-0.28 0-0.5 0c-2.78 0-2.47 0.36-2.42-2.6zm-11.42 3.1c-0.09 0-0.18 0.13-0.22 0.27 0-0.14 0.04-0.27 0.22-0.27zm-27.76-0.5c0.13 0.77 0.27 1.17 0.49 1.44-0.22-0.27-0.36-0.67-0.49-1.44zm27.18 1.04c0 0.22-0.13 0.4-0.22 0.58 0-0.18 0.13-0.36 0.22-0.58q0.13 0 0.27 0-0.14 0-0.27 0z"/>
	<path class="s0" d="m392.66 195.73c0-0.81-0.22-1.52-1.12-1.79-1.66-0.36-3.33-0.41-4.99 0-0.81 0.22-1.03 0.94-1.12 1.61-0.05 0.77 0.45 1.13 1.08 1.44 0.81 0.36 1.61 0.32 2.38 0.23 0.81-0.05 1.62-0.18 2.47-0.23 0.81-0.09 1.39-0.45 1.39-1.3z"/>
	<path class="s0" d="m532.04 197.35c1.03 0.05 1.98-0.63 2.02-1.48 0.14-0.81-0.58-1.8-1.57-1.98-0.67-0.13-1.44-0.13-1.75-0.13-1.21 0-2.16-0.05-2.97 0.31-0.85 0.36-0.99 1.12-0.99 1.84 0 0.9 0.68 0.99 1.4 1.08 1.26 0.14 2.56 0.32 3.82 0.36z"/>
	<path class="s0" d="m164.68 193.76c-1.26 0-2.11-0.05-2.97 0.27-0.9 0.31-1.12 0.98-1.12 1.79 0 0.59 0.36 0.99 0.94 1.08 1.49 0.23 3.01 0.41 4.54 0.45 0.94 0 1.75-0.72 1.8-1.53 0.04-0.94-0.5-1.66-1.48-1.88-0.68-0.09-1.44-0.09-1.71-0.09z"/>
	<path class="s0" d="m145.9 178.3c1.34 0.09 2.65 0.27 4 0.36 1.07 0 1.79-0.63 1.93-1.44 0.13-1.03-0.63-1.84-1.75-2.02-0.59-0.09-1.26 0-1.89 0-0.77 0-1.57 0-2.29 0-0.81 0.13-1.35 0.99-1.35 1.8 0 0.89 0.63 1.16 1.39 1.21z"/>
	<path class="s0" d="m276.74 197.22c0.63-0.23 1.12-0.68 1.17-1.4 0-0.76-0.18-1.48-0.9-1.75-1.8-0.63-3.73-0.54-5.48 0-0.63 0.18-1.08 1.3-0.95 1.93q0.27 0.9 1.31 0.9c1.21 0.09 2.38 0.27 3.63 0.41 0.36 0 0.81 0.04 1.17-0.09z"/>
	<path class="s0" d="m370.78 178.3c1.35 0.09 2.65 0.27 4 0.36 1.03 0 1.71-0.63 1.8-1.57 0-0.99-0.59-1.76-1.62-1.89-0.63-0.09-1.3 0-1.93 0-0.72 0-1.53-0.09-2.25 0-0.9 0.13-1.48 0.99-1.44 1.89 0 0.94 0.72 1.12 1.49 1.21z"/>
	<path class="s0" d="m254.18 178.3q1.57 0.18 3.15 0.36c0.4 0 0.9 0 1.35 0 0.8-0.14 1.21-0.63 1.34-1.35 0.14-0.81-0.36-1.89-1.12-1.98-1.66-0.31-3.37-0.4-5.03 0-0.81 0.18-1.13 0.99-1.08 1.85 0 0.85 0.63 1.03 1.3 1.12z"/>
	<path class="s0" d="m224.41 178.16c-0.95 0-1.72-0.77-1.72-1.73 0-0.95 0.77-1.73 1.72-1.73 0.96 0 1.73 0.78 1.73 1.73 0 0.96-0.77 1.73-1.73 1.73z"/>
	<path class="s0" d="m495.51 178.34c1.04 0.54 1.62 0.36 2.52-0.94 0.67 0 0.81 0.76 1.35 0.99 0.98 0.45 1.93 0.18 2.42-0.72 0.36-0.63 0-1.84-0.67-2.34-0.68-0.49-1.75-0.31-2.29 0.41-0.23 0.31-0.18 0.81-0.72 0.81v-0.14h-0.09c0-0.18-0.05-0.31-0.23-0.4-0.18-1.13-1.12-1.08-1.93-0.95-0.9 0.14-1.12 0.99-1.21 1.76-0.18 0.67 0.31 1.16 0.9 1.48z"/>
	<path class="s0" d="m202.44 208.54c-0.88 0-1.59-0.72-1.59-1.62 0-0.89 0.71-1.62 1.59-1.62 0.89 0 1.6 0.73 1.6 1.62 0 0.9-0.71 1.62-1.6 1.62z"/>
	<path class="s0" d="m547.18 205.26c-0.76 0-1.57 0.9-1.48 1.66 0 0.81 0.85 1.62 1.57 1.53 0.95 0 1.62-0.86 1.58-1.8-0.09-0.76-0.86-1.53-1.67-1.48z"/>
	<path class="s0" d="m367.05 48.76c3.24-1.89 6.65-3.05 10.52-2.83 3.68 0.27 6.65 1.8 9.3 4.45-0.68 0.58-1.35 0.36-1.89 0.36-2.88 0.22-5.75-0.05-8.67 0.27-3.46 0.36-6.79 1.17-9.93 2.78 0.22 0.59 0.81 0.36 1.21 0.36 3.73 0 7.37 0.36 10.87 1.71 3.82 1.57 6.11 4.27 6.79 8.27 0.18 1.26 0.31 2.56 0.45 4.18-2.61-1.4-4.67-3.1-6.88-4.59-2.15-1.48-4.49-2.74-6.87-3.82-2.43-0.98-4.94-1.61-7.77-1.93 0.58 1.75 1.16 3.28 1.7 4.81 1.22 4.45 1.85 8.94 1.49 13.52-0.14 1.76-0.45 3.42-0.86 4.99-0.09 0.32-0.13 0.72-0.76 0.94-0.59-7.32-3.01-14.06-6.16-20.62-0.36-0.72-0.67-1.48-1.03-2.2-0.27-0.49-0.63-0.49-0.94-0.14-0.18 0.23-0.36 0.5-0.5 0.68-2.02 2.78-3.64 5.88-5.57 8.72-1.71 3.01-3.5 5.93-5.53 8.76-0.99-3.46-1.12-6.92 0-10.38 1.08-3.6 3.51-6.11 6.83-8.27-1.39-0.13-2.33 0.36-3.32 0.63-4.18 1.21-8.27 2.96-12.22 4.81-0.27 0.13-0.5 0.31-0.81 0.22 0-0.04-0.18-0.18-0.14-0.22 1.58-2.61 3.24-5.08 5.62-6.92 2.38-1.8 5.03-2.79 7.91-3.1 1.75-0.09 3.46-0.41 5.21-0.32 0.27 0 0.72 0.23 0.9-0.36-1.48-1.66-3.15-3.14-4.85-4.62q-2.62-2.23-5.44-4.18c-1.84-1.31-3.78-2.56-5.93-3.42 2.11-0.85 4.18-1.3 6.42-0.99 2.79 0.36 5.26 1.58 7.42 3.33 0.36 0.31 0.76 0.72 1.16 0.99 0.23 0.49 0.59 0.94 1.08 1.25 1.08 1.31 1.71 2.84 2.88 4 0 0.18 0.09 0.18 0.09 0.09 0 0-0.05 0-0.09-0.09 0-2.6-0.18-5.16 0.36-7.72 0.36-0.27 0.36-0.86 0.54-1.22 1.44-3.41 3.95-5.48 7.46-6.47 0.4 0.41 0.09 0.72-0.05 0.99-1.48 2.88-2.34 6.02-3.64 9.08-0.13 0.36-0.13 0.76-0.18 1.17-0.63 0.53-0.31 1.3-0.49 1.97-0.36 1.35-0.54 2.79-0.77 4.18 1.8-1.12 3.46-2.29 5.22-3.28z"/>
	<path class="s0" d="m368.4 105.15q-3.24-3.73-7.01-6.87c-1.12-0.9-1.12-0.9-2.16 0-2.38 2.06-4.58 4.13-6.69 6.42q-0.27 0-0.54 0c1.35-2.83 3.1-5.48 4.94-8.04 0.86-1.17 0.86-1.17-0.31-1.98-5.26-3.68-10.88-6.47-17.21-7.55-3.55-0.63-7.1-0.81-10.65 0.05-0.18 0-0.27 0-0.49-0.32 3.41-1.97 7-3.41 10.96-3.64 6.29-0.49 11.73 1.71 16.58 5.48 1.26 0.99 2.51 1.94 3.5 3.15 0.63 0.76 1.08 0.67 1.67 0 2.2-2.29 4.67-4.13 7.36-5.66 6.79-3.82 13.75-4.09 20.85-0.94 0.77 0.31 1.49 0.76 2.25 1.12 0.22 0.13 0.49 0.31 0.72 0.63-11.14-1.93-20.63 2.06-29.48 8.44 1.98 2.52 3.69 5.13 5.13 7.91 0.26 0.54 0.85 1.04 0.4 1.8z"/>
	<path class="s0" d="m365.88 62.73c-0.54-1.52-1.12-3.1-1.7-4.8 2.83 0.36 5.3 0.9 7.77 1.88-0.41 0.27-0.27 0.45 0 0.68 2.69 2.47 3.55 5.84 4.18 9.21 0.31 1.93 0.36 3.82 0.45 5.8-0.59 0.08-0.63-0.36-0.81-0.68-2.43-4-5.12-7.82-8.45-11.1-0.45-0.45-0.76-0.94-1.44-0.94z"/>
	<path class="s0" d="m351.55 68.71c1.98-2.83 3.55-5.93 5.57-8.72 0.18-0.22 0.32-0.49 0.5-0.67 0.36-0.36 0.67-0.4 0.94 0.13 0.36 0.77 0.67 1.49 1.03 2.25-0.94 0.23-0.81 1.08-0.99 1.71-1.25 4-2.02 8.09-2.51 12.22-0.27 2.16-0.59 4.27-0.81 6.43-0.67 0-0.63-0.54-0.81-0.95-1.48-3.5-2.34-7.19-2.65-11.05 0-0.41 0.13-0.99-0.36-1.21z"/>
	<path class="s0" d="m367.05 48.76c-1.8 0.99-3.37 2.2-5.17 3.28 0.23-1.39 0.36-2.83 0.72-4.18 0.18-0.67-0.13-1.44 0.5-1.98 0.49 0 0.67-0.35 0.94-0.76 3.15-4.36 7.5-6.47 12.9-6.69q1.12 0 2.2 0c0.13 0.58-0.32 0.67-0.54 0.85-2.65 1.98-5.62 3.59-8.13 5.8-1.08 0.94-2.12 1.84-3.1 2.83-0.27 0.18-0.63 0.45-0.27 0.85z"/>
	<path class="s0" d="m351.01 49.03c1.71 1.48 3.37 2.97 4.85 4.63-0.18 0.54-0.58 0.36-0.9 0.36-1.75-0.14-3.46 0.18-5.21 0.31-0.09-0.63-0.58-0.63-1.03-0.72-4.76-1.21-9.57-2.2-14.42-2.56-0.09-0.54 0.31-0.58 0.58-0.67 4.27-1.39 8.58-2.2 13.12-1.62 0.72 0.09 1.53 0.23 2.2 0.49 0.32 0.14 0.54 0.14 0.77-0.17z"/>
	<path class="s0" d="m358.6 50.06c-1.16-1.16-1.79-2.78-2.83-4-0.09-0.49-0.18-0.94-0.58-1.3-1.03-2.78-2.52-5.3-3.82-8.31 3.1 1.66 5.57 3.5 7.59 5.93-0.63 2.52-0.36 5.12-0.36 7.68z"/>
	<path class="s0" d="m352 104.7q0.27 0 0.54 0c0 0.36-0.09 0.54-0.41 0.54-0.27 0-0.31-0.27-0.09-0.49z"/>
	<path class="s0" d="m336.45 64.58c-0.27 0.04 0 0.18-0.13 0 0 0 0-0.14 0.13 0z"/>
	<path class="s0" d="m368.35 105.06h0.05v0.09z"/>
	<path class="s0" d="m358.56 50.06c0 0 0.09 0 0.09 0.09 0 0.09-0.05 0.05-0.09-0.09z"/>
	<g>
	</g>
</svg>